<svg width="32" height="32" viewBox="0 0 32 32" fill="none" xmlns="http://www.w3.org/2000/svg">
<path d="M26.6667 22.6667V9.33333C26.6667 6.44267 21.7827 4 16 4C10.2173 4 5.33333 6.44267 5.33333 9.33333V22.6667C5.33333 25.5573 10.2173 28 16 28C21.7827 28 26.6667 25.5573 26.6667 22.6667ZM16 6.66667C20.9213 6.66667 23.908 8.676 24 9.32533C23.908 9.99067 20.9213 12 16 12C11.0787 12 8.09199 9.99067 7.99999 9.34133C8.09199 8.676 11.0787 6.66667 16 6.66667ZM7.99999 12.8093C9.972 13.9387 12.8493 14.6667 16 14.6667C19.1507 14.6667 22.028 13.9387 24 12.8093V15.992C23.908 16.6573 20.9213 18.6667 16 18.6667C11.0787 18.6667 8.09199 16.6573 7.99999 16V12.8093ZM7.99999 22.6667V19.476C9.972 20.6053 12.8493 21.3333 16 21.3333C19.1507 21.3333 22.028 20.6053 24 19.476V22.6587C23.908 23.324 20.9213 25.3333 16 25.3333C11.0787 25.3333 8.09199 23.324 7.99999 22.6667Z" fill="#FFCC01"/>
</svg>
