<svg width="64" height="64" viewBox="0 0 64 64" fill="none" xmlns="http://www.w3.org/2000/svg">
<path d="M13.3413 58.6667H50.6746C53.6159 58.6667 56.0079 56.2747 56.0079 53.3333V29.3333C56.0083 28.9831 55.9395 28.6363 55.8054 28.3127C55.6713 27.9892 55.4746 27.6953 55.2266 27.448L33.8933 6.11467C33.6458 5.86682 33.352 5.67018 33.0284 5.53602C32.7049 5.40186 32.3582 5.3328 32.0079 5.3328C31.6577 5.3328 31.3109 5.40186 30.9874 5.53602C30.6639 5.67018 30.37 5.86682 30.1226 6.11467L8.78927 27.448C8.54127 27.6953 8.34458 27.9892 8.2105 28.3127C8.07641 28.6363 8.00757 28.9831 8.00794 29.3333V53.3333C8.00794 56.2747 10.3999 58.6667 13.3413 58.6667ZM26.6746 53.3333V40H37.3413V53.3333H26.6746ZM13.3413 30.4373L32.0079 11.7707L50.6746 30.4373L50.6773 53.3333H42.6746V40C42.6746 37.0587 40.2826 34.6667 37.3413 34.6667H26.6746C23.7333 34.6667 21.3413 37.0587 21.3413 40V53.3333H13.3413V30.4373Z" fill="#FFCC01"/>
</svg>
