<svg width="32" height="32" viewBox="0 0 32 32" fill="none" xmlns="http://www.w3.org/2000/svg">
<path d="M25.22 1.41699H6.11001C5.24501 1.41699 4.54401 2.11899 4.54401 2.98299V28.296C4.54401 29.161 5.24401 29.861 6.11001 29.861H25.22C26.086 29.861 26.786 29.161 26.786 28.297V2.98399C26.786 2.11899 26.086 1.41699 25.221 1.41699H25.22ZM15.667 29.3C15.582 29.3048 15.4968 29.2922 15.4168 29.263C15.3368 29.2337 15.2636 29.1885 15.2017 29.13C15.1398 29.0715 15.0904 29.0009 15.0567 28.9227C15.023 28.8445 15.0056 28.7602 15.0056 28.675C15.0056 28.5898 15.023 28.5055 15.0567 28.4273C15.0904 28.349 15.1398 28.2785 15.2017 28.22C15.2636 28.1615 15.3368 28.1162 15.4168 28.087C15.4968 28.0578 15.582 28.0452 15.667 28.05C15.8252 28.061 15.9733 28.1315 16.0814 28.2474C16.1896 28.3633 16.2497 28.516 16.2497 28.6745C16.2497 28.833 16.1896 28.9856 16.0814 29.1016C15.9733 29.2175 15.8252 29.288 15.667 29.299V29.3ZM24.377 26.855C24.3767 26.9378 24.3436 27.0172 24.285 27.0757C24.2263 27.1342 24.1468 27.167 24.064 27.167H7.27001C7.18725 27.1667 7.10794 27.1338 7.04932 27.0754C6.99071 27.017 6.95753 26.9377 6.95701 26.855V4.29999C6.95701 4.12699 7.09701 3.98699 7.27001 3.98699H24.062C24.234 3.98699 24.374 4.12699 24.374 4.29999L24.376 26.855H24.377Z" fill="#FFCC01"/>
</svg>
