<svg width="32" height="32" viewBox="0 0 32 32" fill="none" xmlns="http://www.w3.org/2000/svg">
<path d="M20.6667 1.33331H10C9.11595 1.33331 8.2681 1.6845 7.64298 2.30962C7.01786 2.93475 6.66667 3.78259 6.66667 4.66665V27.3333C6.66667 28.2174 7.01786 29.0652 7.64298 29.6903C8.2681 30.3155 9.11595 30.6666 10 30.6666H20.6667C21.5507 30.6666 22.3986 30.3155 23.0237 29.6903C23.6488 29.0652 24 28.2174 24 27.3333V4.66665C24 3.78259 23.6488 2.93475 23.0237 2.30962C22.3986 1.6845 21.5507 1.33331 20.6667 1.33331V1.33331ZM15.3333 29.3333C14.2267 29.3333 13.3333 28.44 13.3333 27.3333C13.3333 26.2266 14.2267 25.3333 15.3333 25.3333C16.44 25.3333 17.3333 26.2266 17.3333 27.3333C17.3333 28.44 16.44 29.3333 15.3333 29.3333ZM21.3333 24H9.33334V5.33331H21.3333V24Z" fill="#FFCC01"/>
</svg>
