<svg width="27" height="32" viewBox="0 0 27 32" fill="none" xmlns="http://www.w3.org/2000/svg">
<path d="M12.6033 16.7333L14.1367 18C14.3144 18.1778 14.3589 18.3111 14.27 18.4L12.87 20.8666C12.7811 20.9555 12.6256 21 12.4033 21L10.6033 20.2666C10.0256 20.6666 9.60334 20.9111 9.33667 21L9.00334 22.8C8.82556 23.0222 8.69223 23.1333 8.60334 23.1333H5.73667C5.64778 23.1333 5.57 23.1 5.50334 23.0333C5.43667 22.9666 5.42556 22.8889 5.47 22.8L5.20334 21C4.89223 20.9111 4.44778 20.6666 3.87 20.2666L1.93667 20.8666C1.80334 20.9555 1.64778 20.8889 1.47 20.6666L0.0700029 18.2666C0.0700029 18.0889 0.114447 17.9111 0.203336 17.7333L1.73667 16.6V15.1333L0.203336 14C0.0255585 13.8222 -0.018886 13.6889 0.0700029 13.6L1.47 11.1333C1.55889 11.0444 1.71445 11 1.93667 11L3.73667 11.7333C4.31445 11.3333 4.75889 11.0889 5.07 11L5.33667 9.19998C5.51445 8.97776 5.64778 8.86665 5.73667 8.86665H8.60334C8.87 8.86665 9.00334 8.97776 9.00334 9.19998L9.33667 11C9.60334 11.0889 10.0256 11.3333 10.6033 11.7333L12.4033 11.1333C12.5367 11.0444 12.6922 11.1111 12.87 11.3333L14.27 13.7333C14.27 13.9111 14.2256 14.0444 14.1367 14.1333L12.6033 15.2666V16.7333ZM7.17 18.8666C7.94778 18.8666 8.61445 18.5889 9.17 18.0333C9.72556 17.4778 10.0033 16.8 10.0033 16C10.0033 15.2 9.72556 14.5222 9.17 13.9666C8.61445 13.4111 7.94778 13.1333 7.17 13.1333C6.39223 13.1333 5.72556 13.4111 5.17 13.9666C4.61445 14.5222 4.33667 15.2 4.33667 16C4.33667 16.8 4.61445 17.4778 5.17 18.0333C5.72556 18.5889 6.39223 18.8666 7.17 18.8666ZM22.8033 0.333313C23.6033 0.333313 24.2811 0.611091 24.8367 1.16665C25.3922 1.7222 25.67 2.39998 25.67 3.19998V28.8C25.67 29.6 25.3922 30.2778 24.8367 30.8333C24.2811 31.3889 23.6033 31.6666 22.8033 31.6666H8.60334C7.80334 31.6666 7.12556 31.3889 6.57 30.8333C6.01445 30.2778 5.73667 29.6 5.73667 28.8V24.5333H8.60334V27.4H22.8033V4.59998H8.60334V7.46665H5.73667V3.19998C5.73667 2.39998 6.01445 1.7222 6.57 1.16665C7.12556 0.611091 7.80334 0.333313 8.60334 0.333313H22.8033Z" fill="#FFCC01"/>
</svg>
