<svg width="16" height="16" viewBox="0 0 16 16" fill="none" xmlns="http://www.w3.org/2000/svg">
<path d="M14.1891 5.51714L10.2219 4.94058L8.44843 1.34527C8.39999 1.24683 8.32031 1.16714 8.22187 1.11871C7.97499 0.996832 7.67499 1.09839 7.55156 1.34527L5.77812 4.94058L1.81093 5.51714C1.70156 5.53277 1.60156 5.58433 1.52499 5.66246C1.43244 5.75759 1.38143 5.88558 1.38319 6.0183C1.38495 6.15103 1.43932 6.27762 1.53437 6.37027L4.40468 9.16871L3.72656 13.1203C3.71065 13.2122 3.72083 13.3067 3.75592 13.3932C3.79101 13.4796 3.84962 13.5545 3.9251 13.6093C4.00058 13.6641 4.08991 13.6967 4.18296 13.7033C4.27601 13.71 4.36906 13.6904 4.45156 13.6468L7.99999 11.7812L11.5484 13.6468C11.6453 13.6984 11.7578 13.7156 11.8656 13.6968C12.1375 13.65 12.3203 13.3921 12.2734 13.1203L11.5953 9.16871L14.4656 6.37027C14.5437 6.29371 14.5953 6.19371 14.6109 6.08433C14.6531 5.81089 14.4625 5.55777 14.1891 5.51714Z" fill="#FFCC01"/>
</svg>
