<svg width="32" height="32" viewBox="0 0 32 32" fill="none" xmlns="http://www.w3.org/2000/svg">
<path d="M19 24V26H13V24H19Z" fill="#FFCC01"/>
<path d="M25 30H7C6.46973 29.9995 5.96133 29.7886 5.58637 29.4136C5.21141 29.0387 5.00053 28.5303 5 28V4C5.00053 3.46973 5.21141 2.96133 5.58637 2.58637C5.96133 2.21141 6.46973 2.00053 7 2H25C25.5303 2.00053 26.0387 2.21141 26.4136 2.58637C26.7886 2.96133 26.9995 3.46973 27 4V28C26.9992 28.5302 26.7882 29.0384 26.4133 29.4133C26.0384 29.7882 25.5302 29.9992 25 30V30ZM7 4V28H25V4H7Z" fill="#FFCC01"/>
</svg>
