<svg width="32" height="32" viewBox="0 0 32 32" fill="none" xmlns="http://www.w3.org/2000/svg">
<path d="M21 24H11C10.4696 24 9.96086 24.2107 9.58579 24.5858C9.21071 24.9609 9 25.4696 9 26V28C9 28.5304 9.21071 29.0391 9.58579 29.4142C9.96086 29.7893 10.4696 30 11 30H21C21.5304 30 22.0391 29.7893 22.4142 29.4142C22.7893 29.0391 23 28.5304 23 28V26C23 25.4696 22.7893 24.9609 22.4142 24.5858C22.0391 24.2107 21.5304 24 21 24ZM21 28H11V26H21V28Z" fill="#FFCC01"/>
<path d="M28.707 14.293L16.707 2.29303C16.5195 2.10556 16.2652 2.00024 16 2.00024C15.7348 2.00024 15.4805 2.10556 15.293 2.29303L3.293 14.293C3.15319 14.4329 3.05798 14.611 3.01942 14.805C2.98085 14.999 3.00065 15.2 3.07632 15.3827C3.15199 15.5654 3.28013 15.7215 3.44454 15.8314C3.60895 15.9413 3.80225 16 4 16H9V20C9.00053 20.5303 9.21141 21.0387 9.58637 21.4137C9.96133 21.7886 10.4697 21.9995 11 22H21C21.5302 21.9992 22.0384 21.7883 22.4133 21.4134C22.7882 21.0385 22.9992 20.5302 23 20V16H28C28.1978 16 28.391 15.9413 28.5555 15.8314C28.7199 15.7215 28.848 15.5654 28.9237 15.3827C28.9993 15.2 29.0192 14.999 28.9806 14.805C28.942 14.611 28.8468 14.4329 28.707 14.293ZM21 14V20H11V14H6.414L16 4.41403L25.586 14H21Z" fill="#FFCC01"/>
</svg>
