<?xml version="1.0" standalone="no"?>
<!DOCTYPE svg PUBLIC "-//W3C//DTD SVG 20010904//EN"
 "http://www.w3.org/TR/2001/REC-SVG-20010904/DTD/svg10.dtd">
<svg version="1.0" xmlns="http://www.w3.org/2000/svg"
 width="949.000000pt" height="949.000000pt" viewBox="0 0 949.000000 949.000000"
 preserveAspectRatio="xMidYMid meet">
<metadata>
Created by potrace 1.14, written by Peter Selinger 2001-2017
</metadata>
<g transform="translate(0.000000,949.000000) scale(0.100000,-0.100000)"
fill="#000000" stroke="none">
<path d="M4298 9484 c-2 -1 -37 -5 -78 -9 -41 -4 -77 -8 -80 -10 -3 -1 -32 -6
-65 -9 -175 -19 -483 -87 -709 -157 -72 -22 -131 -41 -132 -42 -1 -1 -5 -63
-8 -137 -4 -74 -8 -173 -11 -220 -2 -47 -7 -170 -11 -274 -3 -104 -8 -197 -9
-205 -2 -9 -4 -19 -4 -23 -1 -4 -11 -10 -23 -14 -41 -12 -211 -95 -320 -155
l-108 -60 -57 38 c-32 21 -60 40 -63 44 -3 3 -117 81 -254 173 -137 93 -268
182 -291 198 l-42 30 -74 -53 c-69 -50 -137 -102 -184 -141 -11 -9 -49 -40
-85 -69 -109 -88 -357 -326 -469 -451 l-42 -46 34 -64 c37 -69 115 -217 227
-433 40 -77 88 -168 106 -201 33 -61 33 -62 15 -85 -80 -105 -235 -343 -248
-383 -6 -17 -14 -18 -127 -11 -67 3 -137 8 -156 10 -19 2 -78 6 -130 10 -52 3
-115 8 -140 10 -25 3 -83 7 -130 10 -47 4 -108 8 -136 10 l-51 4 -33 -72 c-46
-103 -64 -144 -90 -212 -12 -33 -26 -69 -31 -80 -52 -123 -199 -643 -199 -703
0 -16 69 -75 90 -77 3 0 31 -17 63 -38 101 -66 159 -102 332 -212 254 -160
236 -145 231 -180 -11 -74 -25 -280 -25 -393 l-1 -83 -192 -94 c-106 -52 -199
-95 -205 -95 -7 0 -13 -4 -13 -8 0 -4 -22 -16 -50 -26 -27 -10 -50 -22 -50
-27 0 -5 -4 -8 -8 -6 -4 1 -63 -25 -130 -58 l-123 -59 5 -74 c3 -40 8 -83 10
-95 3 -12 7 -44 10 -72 3 -27 13 -90 21 -140 9 -49 18 -103 21 -120 24 -146
144 -588 165 -610 5 -5 28 -10 52 -11 56 -2 329 -13 492 -19 194 -8 307 -14
310 -17 1 -2 34 -70 74 -153 40 -82 84 -170 99 -195 14 -25 27 -47 27 -50 1
-3 7 -17 14 -32 14 -28 26 -10 -250 -412 -30 -43 -58 -85 -64 -94 -5 -8 -40
-60 -77 -114 -38 -55 -68 -104 -68 -110 0 -9 132 -194 178 -250 45 -53 149
-176 181 -213 63 -72 382 -385 393 -385 6 0 47 20 92 44 45 24 128 67 186 97
58 29 107 55 110 58 3 3 48 28 100 54 52 26 135 69 183 94 l88 46 47 -34 c75
-53 292 -199 295 -197 1 1 21 -11 44 -25 28 -18 41 -32 39 -44 -2 -10 -7 -70
-11 -133 -5 -63 -9 -133 -11 -155 -2 -22 -5 -74 -8 -115 -3 -41 -7 -102 -10
-135 -6 -71 -17 -227 -19 -270 -2 -28 3 -32 93 -72 52 -23 151 -63 220 -88 69
-26 134 -51 145 -56 11 -4 67 -22 125 -39 58 -17 116 -35 130 -40 14 -5 101
-28 194 -50 l168 -42 17 24 c9 13 67 104 130 203 62 99 122 192 132 207 11 15
19 32 19 38 0 5 5 10 10 10 6 0 10 6 10 13 0 7 9 23 20 35 11 12 20 23 20 26
0 3 23 42 52 87 l51 81 71 -6 c109 -10 242 -17 345 -20 l94 -2 37 -74 c21 -41
61 -124 90 -185 251 -523 248 -516 277 -511 16 2 60 7 98 11 125 12 383 54
490 80 33 9 69 17 80 19 78 15 378 101 404 116 10 5 16 25 17 57 7 161 15 356
19 473 6 168 15 323 18 326 1 1 104 54 229 117 l228 115 132 -91 c73 -49 177
-121 231 -158 54 -38 100 -69 103 -69 5 0 64 -40 74 -50 3 -3 41 -29 84 -58
l79 -53 46 32 c53 37 249 189 301 232 170 144 500 472 500 498 0 6 -17 43 -39
82 -21 40 -74 140 -117 222 -43 83 -100 191 -126 240 -27 50 -62 118 -79 152
l-31 62 59 83 c73 103 162 239 194 296 l24 44 100 -7 c55 -4 116 -8 135 -10
19 -1 82 -6 140 -9 58 -4 121 -9 140 -11 43 -4 203 -16 283 -20 l58 -3 35 75
c96 207 202 506 260 733 11 44 26 107 29 123 2 10 6 26 9 35 21 68 24 132 7
132 -5 0 -65 36 -133 79 -67 44 -225 144 -350 223 -124 78 -225 145 -223 148
9 16 21 188 26 379 l3 124 136 65 c625 300 635 305 635 323 -2 56 -35 312 -51
394 -2 10 -6 37 -10 59 -3 22 -7 43 -9 46 -2 3 -6 23 -9 45 -4 22 -9 48 -12
57 -5 18 -13 51 -20 88 -4 22 -11 52 -21 88 -1 6 -4 18 -6 25 -2 6 -10 32 -17
57 -7 25 -15 52 -16 60 -2 8 -15 53 -30 100 l-26 85 -62 2 c-67 1 -295 10
-481 19 -66 3 -164 6 -218 8 -53 2 -99 5 -100 7 -2 2 -23 49 -47 104 -24 55
-48 102 -52 103 -4 2 -8 10 -8 17 0 7 -26 60 -58 118 -32 57 -56 111 -53 119
3 8 111 169 239 357 l234 343 -33 47 c-38 55 -110 151 -124 167 -5 7 -26 31
-45 55 -143 176 -313 358 -494 527 -56 52 -73 60 -91 43 -6 -4 -77 -43 -160
-86 -82 -43 -193 -100 -245 -128 -303 -158 -325 -169 -337 -161 -111 77 -281
192 -293 197 -8 4 -28 16 -45 27 -16 11 -41 25 -53 32 -23 12 -24 15 -18 108
6 88 10 133 21 265 3 28 7 93 11 145 3 52 8 111 9 130 2 19 7 78 10 130 l7 95
-135 57 c-290 124 -566 214 -857 278 -80 17 -86 18 -101 2 -9 -9 -101 -152
-204 -317 -215 -343 -250 -396 -256 -391 -9 9 -244 27 -390 30 -94 2 -102 3
-120 26 -10 14 -19 28 -19 31 0 4 -37 83 -81 175 -212 439 -239 497 -239 504
0 20 -58 48 -72 34z m697 -2294 c205 -19 514 -94 660 -161 42 -18 80 -32 88
-31 4 1 7 -3 7 -8 0 -6 7 -10 15 -10 25 0 255 -126 322 -176 17 -13 34 -24 38
-24 5 0 147 -103 171 -125 6 -5 37 -32 69 -60 216 -187 419 -443 555 -702 126
-239 226 -542 256 -773 3 -25 7 -52 9 -60 9 -35 19 -203 19 -310 -1 -355 -63
-658 -202 -982 -49 -113 -153 -312 -172 -328 -3 -3 -17 -23 -30 -45 -35 -58
-141 -198 -208 -274 -173 -197 -350 -341 -637 -519 -34 -21 -240 -120 -292
-141 -106 -42 -313 -105 -378 -116 -11 -1 -58 -10 -105 -18 -169 -31 -244 -37
-425 -38 -226 -1 -444 27 -645 82 -41 11 -82 22 -90 24 -45 10 -208 73 -300
116 -185 88 -366 199 -322 199 6 0 22 10 34 23 13 12 53 47 88 77 36 30 76 65
90 77 31 27 65 56 108 91 18 15 48 41 67 57 18 17 52 46 75 64 24 19 48 40 54
46 28 27 59 42 77 38 10 -3 19 -10 19 -15 0 -5 3 -7 8 -4 4 2 30 -6 57 -19 28
-13 58 -24 67 -24 9 -1 20 -5 23 -11 3 -5 16 -10 29 -10 12 0 27 -5 34 -12 7
-7 12 -9 12 -5 0 3 12 2 28 -4 26 -10 83 -24 147 -35 17 -3 37 -7 45 -10 78
-27 520 -23 595 6 14 5 29 9 33 8 4 -1 18 2 32 5 14 4 34 9 45 11 11 1 27 6
35 9 8 4 24 8 35 10 11 1 25 5 30 8 6 3 45 17 87 30 43 13 78 27 78 32 0 4 4
7 9 7 5 0 30 9 55 20 26 11 49 19 53 19 3 0 9 3 12 8 3 5 33 25 66 43 33 19
66 40 73 47 7 7 17 13 21 13 4 0 17 8 29 17 52 45 63 53 68 53 6 0 88 77 144
135 73 75 108 115 103 115 -2 0 2 6 9 14 28 29 58 66 53 66 -3 0 0 7 7 15 7 9
18 21 23 28 43 50 191 333 198 375 2 12 6 25 10 28 4 4 7 16 7 26 0 10 4 18 8
18 5 0 9 6 9 13 0 6 8 37 17 68 20 67 21 74 52 254 8 51 9 315 0 380 -4 28
-12 75 -18 105 -6 30 -12 64 -14 75 -18 128 -21 142 -39 142 -8 0 -17 -9 -21
-19 -3 -10 -10 -18 -15 -18 -6 0 -16 -6 -23 -12 -8 -7 -41 -38 -75 -68 -34
-30 -75 -66 -90 -80 -16 -14 -47 -41 -70 -60 -24 -19 -55 -46 -71 -60 -15 -14
-51 -45 -80 -70 -29 -25 -68 -60 -86 -77 -18 -18 -36 -33 -38 -33 -3 0 -24
-17 -47 -37 -72 -66 -96 -87 -139 -123 -23 -19 -59 -51 -79 -70 -21 -19 -52
-46 -70 -59 -41 -31 -106 -88 -142 -123 -16 -16 -31 -28 -33 -28 -5 0 -65 -52
-110 -95 -32 -31 -49 -35 -75 -14 -13 11 -20 19 -17 19 4 0 -3 11 -16 24 -13
14 -37 42 -55 63 -17 21 -41 49 -53 63 -12 14 -36 42 -53 63 -18 21 -43 51
-57 66 -14 15 -41 47 -60 70 -19 24 -46 55 -60 71 -14 15 -41 47 -60 70 -19
23 -42 50 -50 59 -8 10 -31 37 -50 61 -19 23 -45 53 -58 66 -13 13 -21 24 -18
24 2 0 -10 15 -27 33 -34 36 -98 109 -144 166 -15 19 -37 44 -48 55 -33 35
-29 51 32 102 62 54 151 132 169 148 7 6 31 27 55 46 24 19 57 49 74 65 17 17
60 55 95 85 36 30 70 59 76 65 6 5 35 30 64 55 30 25 64 55 76 68 13 12 27 22
31 22 5 0 14 9 21 20 7 11 16 20 21 20 5 0 29 19 54 43 24 23 63 58 87 77 23
19 59 51 80 70 75 68 100 90 105 90 2 0 21 15 42 34 21 19 55 50 77 70 43 39
43 62 -1 71 -15 4 -37 10 -48 15 -37 15 -60 23 -79 27 -11 2 -25 8 -33 14 -7
6 -13 9 -13 5 0 -3 -15 0 -32 7 -28 12 -75 23 -113 28 -5 1 -30 7 -54 15 -25
7 -47 11 -50 9 -4 -2 -33 2 -66 9 -89 18 -415 12 -505 -9 -3 -1 -20 -5 -38 -9
-19 -4 -43 -9 -55 -11 -12 -2 -37 -8 -54 -13 -18 -6 -33 -8 -33 -5 0 3 -6 1
-12 -4 -7 -6 -35 -16 -63 -23 -27 -7 -54 -16 -60 -20 -5 -4 -21 -11 -35 -15
-39 -12 -175 -78 -178 -87 -2 -4 -10 -8 -18 -8 -8 0 -20 -5 -27 -10 -7 -6 -41
-29 -77 -51 -36 -23 -66 -45 -68 -50 -2 -5 -8 -9 -13 -9 -6 0 -20 -10 -33 -22
-33 -32 -65 -58 -72 -58 -3 0 -23 -18 -45 -40 -22 -22 -44 -40 -49 -40 -6 0
-10 -3 -10 -7 0 -5 -22 -31 -48 -59 -26 -29 -59 -66 -72 -83 -14 -18 -33 -42
-43 -54 -10 -11 -28 -37 -39 -57 -12 -19 -25 -37 -28 -40 -4 -3 -20 -30 -36
-60 -16 -30 -33 -58 -37 -61 -5 -3 -8 -9 -8 -13 1 -9 -12 -40 -18 -46 -9 -7
-51 -113 -51 -128 0 -6 -5 -12 -10 -12 -6 0 -9 -3 -8 -7 1 -5 -6 -35 -16 -68
-10 -33 -20 -67 -22 -75 -2 -8 -8 -33 -14 -55 -5 -22 -13 -56 -16 -75 -3 -19
-9 -51 -13 -70 -16 -76 -21 -333 -9 -460 5 -55 25 -164 45 -245 3 -11 7 -29
10 -41 3 -16 -9 -32 -52 -70 -32 -27 -67 -57 -79 -67 -11 -10 -41 -36 -66 -57
-25 -21 -56 -48 -70 -60 -74 -64 -144 -124 -211 -180 -23 -19 -53 -45 -67 -57
-14 -13 -27 -23 -29 -23 -10 0 -136 328 -132 343 1 1 -4 20 -9 42 -26 97 -51
237 -66 365 -13 110 -14 472 -2 530 3 14 7 45 10 70 3 25 8 56 11 70 2 13 7
41 10 61 3 20 10 51 15 69 5 18 9 35 8 39 -1 3 1 13 4 21 4 8 13 44 23 80 29
114 111 323 176 448 133 254 277 446 479 642 94 92 115 110 210 182 41 32 80
61 85 66 32 26 232 146 300 180 119 59 314 139 385 157 8 2 60 15 114 29 55
15 111 28 125 31 264 49 475 59 736 35z"/>
</g>
</svg>
