<svg width="28" height="28" viewBox="0 0 28 28" fill="none" xmlns="http://www.w3.org/2000/svg">
<g clip-path="url(#clip0)">
<path d="M14.8225 2.30646C14.5693 2.17164 14.2869 2.10113 14 2.10113C13.7131 2.10113 13.4307 2.17164 13.1775 2.30646L2.6775 7.90646C2.39754 8.05553 2.16336 8.27789 1.99999 8.54976C1.83662 8.82163 1.75021 9.13278 1.75 9.44996V10.8815L11.767 16.9452L14 15.6047L16.233 16.9452L26.25 10.8815V9.44996C26.2498 9.13278 26.1634 8.82163 26 8.54976C25.8366 8.27789 25.6025 8.05553 25.3225 7.90646L14.8225 2.30646ZM26.25 12.929L17.9305 17.9637L26.25 22.9547V12.9272V12.929ZM26.1888 24.9585L14 17.6452L1.81125 24.9602C1.91224 25.3307 2.13229 25.6577 2.43746 25.8907C2.74264 26.1238 3.116 26.25 3.5 26.25H24.5C24.8842 26.2499 25.2578 26.1235 25.563 25.89C25.8682 25.6566 26.0881 25.3293 26.1888 24.9585ZM1.75 22.9547L10.0695 17.9637L1.75 12.9272V22.9547ZM12.3533 0.761209C12.8601 0.490966 13.4256 0.349609 14 0.349609C14.5744 0.349609 15.1399 0.490966 15.6467 0.761209L26.1467 6.36121C26.7066 6.65973 27.1748 7.10482 27.5012 7.64887C27.8277 8.19293 28.0001 8.81549 28 9.44996V24.5C28 25.4282 27.6313 26.3185 26.9749 26.9748C26.3185 27.6312 25.4283 28 24.5 28H3.5C2.57174 28 1.6815 27.6312 1.02513 26.9748C0.368749 26.3185 1.75068e-08 25.4282 1.75068e-08 24.5V9.44996C-6.34317e-05 8.81549 0.172341 8.19293 0.498775 7.64887C0.825208 7.10482 1.29339 6.65973 1.85325 6.36121L12.3533 0.761209Z" fill="#F2890D"/>
</g>
<defs>
<clipPath id="clip0">
<rect width="28" height="28" fill="white"/>
</clipPath>
</defs>
</svg>
