<svg width="28" height="28" viewBox="0 0 28 28" fill="none" xmlns="http://www.w3.org/2000/svg">
<path fill-rule="evenodd" clip-rule="evenodd" d="M3.5 23.625V12.25H5.25V23.625C5.25 23.8571 5.34219 24.0796 5.50628 24.2437C5.67038 24.4078 5.89294 24.5 6.125 24.5H21.875C22.1071 24.5 22.3296 24.4078 22.4937 24.2437C22.6578 24.0796 22.75 23.8571 22.75 23.625V12.25H24.5V23.625C24.5 24.3212 24.2234 24.9889 23.7312 25.4812C23.2389 25.9734 22.5712 26.25 21.875 26.25H6.125C5.42881 26.25 4.76113 25.9734 4.26884 25.4812C3.77656 24.9889 3.5 24.3212 3.5 23.625ZM22.75 4.375V10.5L19.25 7V4.375C19.25 4.14294 19.3422 3.92038 19.5063 3.75628C19.6704 3.59219 19.8929 3.5 20.125 3.5H21.875C22.1071 3.5 22.3296 3.59219 22.4937 3.75628C22.6578 3.92038 22.75 4.14294 22.75 4.375Z" fill="#F2890D"/>
<path fill-rule="evenodd" clip-rule="evenodd" d="M12.7628 2.62505C13.0909 2.29697 13.536 2.11267 14 2.11267C14.464 2.11267 14.9091 2.29697 15.2373 2.62505L26.8695 14.2555C27.0338 14.4198 27.1261 14.6427 27.1261 14.875C27.1261 15.1074 27.0338 15.3302 26.8695 15.4945C26.7052 15.6588 26.4824 15.7512 26.25 15.7512C26.0177 15.7512 25.7948 15.6588 25.6305 15.4945L14 3.8623L2.36951 15.4945C2.20521 15.6588 1.98236 15.7512 1.75001 15.7512C1.51765 15.7512 1.29481 15.6588 1.13051 15.4945C0.966205 15.3302 0.873901 15.1074 0.873901 14.875C0.873901 14.6427 0.966205 14.4198 1.13051 14.2555L12.7628 2.62505Z" fill="#F2890D"/>
</svg>
