<svg width="28" height="28" viewBox="0 0 28 28" fill="none" xmlns="http://www.w3.org/2000/svg">
<path d="M3.5 1.75C3.03587 1.75 2.59075 1.93437 2.26256 2.26256C1.93437 2.59075 1.75 3.03587 1.75 3.5V17.5C1.75 17.9641 1.93437 18.4092 2.26256 18.7374C2.59075 19.0656 3.03587 19.25 3.5 19.25H20.2755C21.2037 19.2502 22.0938 19.6191 22.75 20.2755L26.25 23.7755V3.5C26.25 3.03587 26.0656 2.59075 25.7374 2.26256C25.4092 1.93437 24.9641 1.75 24.5 1.75H3.5ZM24.5 0C25.4283 0 26.3185 0.368749 26.9749 1.02513C27.6313 1.6815 28 2.57174 28 3.5V25.8878C28 26.0609 27.9486 26.2301 27.8523 26.374C27.756 26.5179 27.6193 26.6301 27.4593 26.6962C27.2992 26.7623 27.1232 26.7795 26.9534 26.7456C26.7837 26.7116 26.6278 26.6281 26.5055 26.5055L21.5128 21.5128C21.1846 21.1845 20.7396 21.0001 20.2755 21H3.5C2.57174 21 1.6815 20.6313 1.02513 19.9749C0.368749 19.3185 0 18.4283 0 17.5V3.5C0 2.57174 0.368749 1.6815 1.02513 1.02513C1.6815 0.368749 2.57174 0 3.5 0L24.5 0Z" fill="#F2890D"/>
<path d="M5.25 6.125C5.25 5.89294 5.34219 5.67038 5.50628 5.50628C5.67038 5.34219 5.89294 5.25 6.125 5.25H21.875C22.1071 5.25 22.3296 5.34219 22.4937 5.50628C22.6578 5.67038 22.75 5.89294 22.75 6.125C22.75 6.35706 22.6578 6.57962 22.4937 6.74372C22.3296 6.90781 22.1071 7 21.875 7H6.125C5.89294 7 5.67038 6.90781 5.50628 6.74372C5.34219 6.57962 5.25 6.35706 5.25 6.125ZM5.25 10.5C5.25 10.2679 5.34219 10.0454 5.50628 9.88128C5.67038 9.71719 5.89294 9.625 6.125 9.625H21.875C22.1071 9.625 22.3296 9.71719 22.4937 9.88128C22.6578 10.0454 22.75 10.2679 22.75 10.5C22.75 10.7321 22.6578 10.9546 22.4937 11.1187C22.3296 11.2828 22.1071 11.375 21.875 11.375H6.125C5.89294 11.375 5.67038 11.2828 5.50628 11.1187C5.34219 10.9546 5.25 10.7321 5.25 10.5ZM5.25 14.875C5.25 14.6429 5.34219 14.4204 5.50628 14.2563C5.67038 14.0922 5.89294 14 6.125 14H14.875C15.1071 14 15.3296 14.0922 15.4937 14.2563C15.6578 14.4204 15.75 14.6429 15.75 14.875C15.75 15.1071 15.6578 15.3296 15.4937 15.4937C15.3296 15.6578 15.1071 15.75 14.875 15.75H6.125C5.89294 15.75 5.67038 15.6578 5.50628 15.4937C5.34219 15.3296 5.25 15.1071 5.25 14.875Z" fill="#F2890D"/>
</svg>
