<svg width="28" height="28" viewBox="0 0 28 28" fill="none" xmlns="http://www.w3.org/2000/svg">
<g clip-path="url(#clip0)">
<path d="M6.39484 2.32427C6.29153 2.19138 6.16112 2.08199 6.01229 2.00337C5.86346 1.92474 5.69959 1.87869 5.53159 1.86826C5.36359 1.85783 5.19529 1.88327 5.03788 1.94288C4.88046 2.0025 4.73753 2.09492 4.61859 2.21402L2.80909 4.02527C1.96384 4.87227 1.65234 6.07102 2.02159 7.12277C3.55413 11.4761 6.0471 15.4284 9.31559 18.6868C12.574 21.9552 16.5263 24.4482 20.8796 25.9808C21.9313 26.35 23.1301 26.0385 23.9771 25.1933L25.7866 23.3838C25.9057 23.2648 25.9981 23.1219 26.0577 22.9645C26.1173 22.8071 26.1428 22.6388 26.1323 22.4708C26.1219 22.3028 26.0759 22.1389 25.9972 21.9901C25.9186 21.8412 25.8092 21.7108 25.6763 21.6075L21.6391 18.468C21.4971 18.3579 21.332 18.2815 21.1562 18.2445C20.9803 18.2075 20.7984 18.2109 20.6241 18.2545L16.7916 19.2118C16.28 19.3396 15.7441 19.3328 15.2359 19.1921C14.7278 19.0513 14.2647 18.7814 13.8918 18.4085L9.59384 14.1088C9.22068 13.7361 8.95041 13.2731 8.80933 12.7649C8.66826 12.2568 8.6612 11.7207 8.78884 11.209L9.74784 7.37652C9.79142 7.20221 9.79486 7.02028 9.75787 6.84446C9.72089 6.66863 9.64445 6.5035 9.53434 6.36152L6.39484 2.32427ZM3.29734 0.894522C3.60358 0.588184 3.97148 0.3505 4.37663 0.197254C4.78177 0.0440083 5.21489 -0.0212936 5.6472 0.00568492C6.07952 0.0326634 6.50115 0.151305 6.8841 0.353731C7.26705 0.556158 7.60256 0.837737 7.86834 1.17977L11.0078 5.21527C11.5836 5.95552 11.7866 6.91977 11.5591 7.82977L10.6018 11.6623C10.5523 11.8608 10.555 12.0687 10.6096 12.2659C10.6642 12.463 10.7688 12.6427 10.9133 12.7875L15.2131 17.0873C15.3581 17.2321 15.538 17.3369 15.7356 17.3915C15.9331 17.4461 16.1413 17.4486 16.3401 17.3988L20.1708 16.4415C20.6199 16.3292 21.0886 16.3205 21.5416 16.416C21.9945 16.5115 22.4198 16.7087 22.7853 16.9928L26.8208 20.1323C28.2716 21.261 28.4046 23.4048 27.1061 24.7015L25.2966 26.511C24.0016 27.806 22.0661 28.3748 20.2618 27.7395C15.6439 26.1147 11.4511 23.471 7.99434 20.0045C4.52809 16.5483 1.8844 12.3561 0.259336 7.73877C-0.374164 5.93627 0.194586 3.99902 1.48959 2.70402L3.29909 0.894522H3.29734Z" fill="#F2890D"/>
</g>
<defs>
<clipPath id="clip0">
<rect width="28" height="28" fill="white"/>
</clipPath>
</defs>
</svg>
