<svg width="1039" height="258" viewBox="0 0 1039 258" fill="none" xmlns="http://www.w3.org/2000/svg">
<path d="M240 74C237.239 74 235 76.2386 235 79C235 81.7614 237.239 84 240 84C242.05 84 243.812 82.7659 244.584 81L257 81V77H244.584C243.812 75.2341 242.05 74 240 74Z" fill="white"/>
<path d="M240 114C237.239 114 235 116.239 235 119C235 121.761 237.239 124 240 124C242.05 124 243.812 122.766 244.584 121L257 121V117H244.584C243.812 115.234 242.05 114 240 114Z" fill="white"/>
<path d="M241 134C238.239 134 236 136.239 236 139C236 141.761 238.239 144 241 144C243.05 144 244.812 142.766 245.584 141L258 141V137H245.584C244.812 135.234 243.05 134 241 134Z" fill="white"/>
<path d="M241 154C238.239 154 236 156.239 236 159C236 161.761 238.239 164 241 164C243.05 164 244.812 162.766 245.584 161L258 161V157H245.584C244.812 155.234 243.05 154 241 154Z" fill="white"/>
<path d="M241 174C238.239 174 236 176.239 236 179C236 181.761 238.239 184 241 184C243.05 184 244.812 182.766 245.584 181L258 181V177H245.584C244.812 175.234 243.05 174 241 174Z" fill="white"/>
<path d="M241 194C238.239 194 236 196.239 236 199C236 201.761 238.239 204 241 204C243.05 204 244.812 202.766 245.584 201L258 201V197H245.584C244.812 195.234 243.05 194 241 194Z" fill="white"/>
<path d="M240 94C237.239 94 235 96.2386 235 99C235 101.761 237.239 104 240 104C242.05 104 243.812 102.766 244.584 101L257 101V97H244.584C243.812 95.2341 242.05 94 240 94Z" fill="white"/>
<path d="M240 54C237.239 54 235 56.2386 235 59C235 61.7614 237.239 64 240 64C242.05 64 243.812 62.7659 244.584 61L257 61V57H244.584C243.812 55.2341 242.05 54 240 54Z" fill="white"/>
<path d="M18 74C20.7614 74 23 76.2386 23 79C23 81.7614 20.7614 84 18 84C15.9497 84 14.1876 82.7659 13.416 81L1 81L1 77H13.416C14.1876 75.2341 15.9497 74 18 74Z" fill="white"/>
<path d="M18 114C20.7614 114 23 116.239 23 119C23 121.761 20.7614 124 18 124C15.9497 124 14.1876 122.766 13.416 121L1 121L1 117H13.416C14.1876 115.234 15.9497 114 18 114Z" fill="white"/>
<path d="M17 134C19.7614 134 22 136.239 22 139C22 141.761 19.7614 144 17 144C14.9497 144 13.1876 142.766 12.416 141L0 141L0 137H12.416C13.1876 135.234 14.9497 134 17 134Z" fill="white"/>
<path d="M17 154C19.7614 154 22 156.239 22 159C22 161.761 19.7614 164 17 164C14.9497 164 13.1876 162.766 12.416 161L0 161L0 157H12.416C13.1876 155.234 14.9497 154 17 154Z" fill="white"/>
<path d="M17 174C19.7614 174 22 176.239 22 179C22 181.761 19.7614 184 17 184C14.9497 184 13.1876 182.766 12.416 181L0 181L0 177H12.416C13.1876 175.234 14.9497 174 17 174Z" fill="white"/>
<path d="M17 194C19.7614 194 22 196.239 22 199C22 201.761 19.7614 204 17 204C14.9497 204 13.1876 202.766 12.416 201L0 201L0 197H12.416C13.1876 195.234 14.9497 194 17 194Z" fill="white"/>
<path d="M18 94C20.7614 94 23 96.2386 23 99C23 101.761 20.7614 104 18 104C15.9497 104 14.1876 102.766 13.416 101L1 101L1 97H13.416C14.1876 95.2341 15.9497 94 18 94Z" fill="white"/>
<path d="M18 54C20.7614 54 23 56.2386 23 59C23 61.7614 20.7614 64 18 64C15.9497 64 14.1876 62.7659 13.416 61L1 61L1 57H13.416C14.1876 55.2341 15.9497 54 18 54Z" fill="white"/>
<path d="M184 18C184 20.7614 181.761 23 179 23C176.239 23 174 20.7614 174 18C174 15.9497 175.234 14.1876 177 13.416L177 1L181 1V13.416C182.766 14.1876 184 15.9497 184 18Z" fill="white"/>
<path d="M144 18C144 20.7614 141.761 23 139 23C136.239 23 134 20.7614 134 18C134 15.9497 135.234 14.1876 137 13.416L137 1L141 1V13.416C142.766 14.1876 144 15.9497 144 18Z" fill="white"/>
<path d="M124 17C124 19.7614 121.761 22 119 22C116.239 22 114 19.7614 114 17C114 14.9497 115.234 13.1876 117 12.416L117 0L121 0V12.416C122.766 13.1876 124 14.9497 124 17Z" fill="white"/>
<path d="M104 17C104 19.7614 101.761 22 99 22C96.2386 22 94 19.7614 94 17C94 14.9497 95.2341 13.1876 97 12.416L97 0L101 0V12.416C102.766 13.1876 104 14.9497 104 17Z" fill="white"/>
<path d="M84 17C84 19.7614 81.7614 22 79 22C76.2386 22 74 19.7614 74 17C74 14.9497 75.2341 13.1876 77 12.416L77 0L81 0V12.416C82.7659 13.1876 84 14.9497 84 17Z" fill="white"/>
<path d="M64 17C64 19.7614 61.7614 22 59 22C56.2386 22 54 19.7614 54 17C54 14.9497 55.2341 13.1876 57 12.416L57 0L61 0V12.416C62.7659 13.1876 64 14.9497 64 17Z" fill="white"/>
<path d="M164 18C164 20.7614 161.761 23 159 23C156.239 23 154 20.7614 154 18C154 15.9497 155.234 14.1876 157 13.416L157 1L161 1V13.416C162.766 14.1876 164 15.9497 164 18Z" fill="white"/>
<path d="M204 18C204 20.7614 201.761 23 199 23C196.239 23 194 20.7614 194 18C194 15.9497 195.234 14.1876 197 13.416L197 1L201 1V13.416C202.766 14.1876 204 15.9497 204 18Z" fill="white"/>
<path d="M184 240C184 237.239 181.761 235 179 235C176.239 235 174 237.239 174 240C174 242.05 175.234 243.812 177 244.584L177 257H181V244.584C182.766 243.812 184 242.05 184 240Z" fill="white"/>
<path d="M144 240C144 237.239 141.761 235 139 235C136.239 235 134 237.239 134 240C134 242.05 135.234 243.812 137 244.584L137 257H141V244.584C142.766 243.812 144 242.05 144 240Z" fill="white"/>
<path d="M124 241C124 238.239 121.761 236 119 236C116.239 236 114 238.239 114 241C114 243.05 115.234 244.812 117 245.584L117 258H121V245.584C122.766 244.812 124 243.05 124 241Z" fill="white"/>
<path d="M104 241C104 238.239 101.761 236 99 236C96.2386 236 94 238.239 94 241C94 243.05 95.2341 244.812 97 245.584L97 258H101V245.584C102.766 244.812 104 243.05 104 241Z" fill="white"/>
<path d="M84 241C84 238.239 81.7614 236 79 236C76.2386 236 74 238.239 74 241C74 243.05 75.2341 244.812 77 245.584L77 258H81V245.584C82.7659 244.812 84 243.05 84 241Z" fill="white"/>
<path d="M64 241C64 238.239 61.7614 236 59 236C56.2386 236 54 238.239 54 241C54 243.05 55.2341 244.812 57 245.584L57 258H61V245.584C62.7659 244.812 64 243.05 64 241Z" fill="white"/>
<path d="M164 240C164 237.239 161.761 235 159 235C156.239 235 154 237.239 154 240C154 242.05 155.234 243.812 157 244.584L157 257H161V244.584C162.766 243.812 164 242.05 164 240Z" fill="white"/>
<path d="M204 240C204 237.239 201.761 235 199 235C196.239 235 194 237.239 194 240C194 242.05 195.234 243.812 197 244.584L197 257H201V244.584C202.766 243.812 204 242.05 204 240Z" fill="white"/>
<g clip-path="url(#clip0)">
<path fill-rule="evenodd" clip-rule="evenodd" d="M116.687 107.631L149.604 140.548C156.141 137.168 163.914 137.798 168.909 142.787C172.757 146.64 174.056 152.158 172.897 157.485L164.409 149.014L156.849 147.54L147.703 156.591L149.278 164.381L157.687 172.678C152.361 173.843 146.831 172.554 142.989 168.707C137.989 163.712 137.37 155.938 140.751 149.396L107.833 116.479C101.291 119.854 93.5175 119.224 88.5225 114.24C84.675 110.381 83.3756 104.869 84.54 99.5419L93.0225 108.008L100.577 109.487L109.734 100.436L108.154 92.6456L99.7443 84.3431C105.066 83.1844 110.595 84.4669 114.442 88.32C119.432 93.315 120.056 101.089 116.687 107.631Z" fill="white"/>
<path fill-rule="evenodd" clip-rule="evenodd" d="M163.352 104.621L153.058 107.985L139.918 121.125L136.656 117.863L149.796 104.734L153.379 94.2038L170.631 83.8931L173.888 87.15L163.352 104.621Z" fill="white"/>
<path fill-rule="evenodd" clip-rule="evenodd" d="M124.933 145.273L97.9387 172.369C95.6719 174.641 91.6894 174.36 89.0625 171.705L86.0644 168.713C83.4375 166.058 83.1394 162.081 85.4175 159.797L112.401 132.701L124.933 145.273Z" fill="white"/>
</g>
<path fill-rule="evenodd" clip-rule="evenodd" d="M29 54C29 54 29 29 54 29H204C229 29 229 54 229 54V204C229 204 229 229 204 229H54C29 229 29 204 29 204V54ZM64 79C64 64 79 64 79 64H179C194 64 194 79 194 79V179C194 179 194 194 179 194H79C79 194 64 194 64 179V79Z" fill="white" stroke="white"/>
<path d="M366.227 115.141C366.227 111.156 364.82 108.109 362.008 106C359.195 103.844 354.133 101.594 346.82 99.25C339.508 96.8594 333.719 94.5156 329.453 92.2188C317.828 85.9375 312.016 77.4766 312.016 66.8359C312.016 61.3047 313.562 56.3828 316.656 52.0703C319.797 47.7109 324.273 44.3125 330.086 41.875C335.945 39.4375 342.508 38.2188 349.773 38.2188C357.086 38.2188 363.602 39.5547 369.32 42.2266C375.039 44.8516 379.469 48.5781 382.609 53.4062C385.797 58.2344 387.391 63.7188 387.391 69.8594H366.297C366.297 65.1719 364.82 61.5391 361.867 58.9609C358.914 56.3359 354.766 55.0234 349.422 55.0234C344.266 55.0234 340.258 56.125 337.398 58.3281C334.539 60.4844 333.109 63.3437 333.109 66.9062C333.109 70.2344 334.773 73.0234 338.102 75.2734C341.477 77.5234 346.422 79.6328 352.938 81.6016C364.938 85.2109 373.68 89.6875 379.164 95.0312C384.648 100.375 387.391 107.031 387.391 115C387.391 123.859 384.039 130.82 377.336 135.883C370.633 140.898 361.609 143.406 350.266 143.406C342.391 143.406 335.219 141.977 328.75 139.117C322.281 136.211 317.336 132.25 313.914 127.234C310.539 122.219 308.852 116.406 308.852 109.797H330.016C330.016 121.094 336.766 126.742 350.266 126.742C355.281 126.742 359.195 125.734 362.008 123.719C364.82 121.656 366.227 118.797 366.227 115.141ZM468.883 104.664C468.883 116.383 466.211 125.781 460.867 132.859C455.57 139.891 448.398 143.406 439.352 143.406C431.664 143.406 425.453 140.734 420.719 135.391V171.25H400.398V65.9219H419.242L419.945 73.375C424.867 67.4688 431.289 64.5156 439.211 64.5156C448.586 64.5156 455.875 67.9844 461.078 74.9219C466.281 81.8594 468.883 91.4219 468.883 103.609V104.664ZM448.562 103.188C448.562 96.1094 447.297 90.6484 444.766 86.8047C442.281 82.9609 438.648 81.0391 433.867 81.0391C427.492 81.0391 423.109 83.4766 420.719 88.3516V119.5C423.203 124.516 427.633 127.023 434.008 127.023C443.711 127.023 448.562 119.078 448.562 103.188ZM525.625 142C524.688 140.172 524.008 137.898 523.586 135.18C518.664 140.664 512.266 143.406 504.391 143.406C496.938 143.406 490.75 141.25 485.828 136.938C480.953 132.625 478.516 127.188 478.516 120.625C478.516 112.562 481.492 106.375 487.445 102.062C493.445 97.75 502.094 95.5703 513.391 95.5234H522.742V91.1641C522.742 87.6484 521.828 84.8359 520 82.7266C518.219 80.6172 515.383 79.5625 511.492 79.5625C508.07 79.5625 505.375 80.3828 503.406 82.0234C501.484 83.6641 500.523 85.9141 500.523 88.7734H480.203C480.203 84.3672 481.562 80.2891 484.281 76.5391C487 72.7891 490.844 69.8594 495.812 67.75C500.781 65.5938 506.359 64.5156 512.547 64.5156C521.922 64.5156 529.352 66.8828 534.836 71.6172C540.367 76.3047 543.133 82.9141 543.133 91.4453V124.422C543.18 131.641 544.188 137.102 546.156 140.805V142H525.625ZM508.82 127.867C511.82 127.867 514.586 127.211 517.117 125.898C519.648 124.539 521.523 122.734 522.742 120.484V107.406H515.148C504.977 107.406 499.562 110.922 498.906 117.953L498.836 119.148C498.836 121.68 499.727 123.766 501.508 125.406C503.289 127.047 505.727 127.867 508.82 127.867ZM590.383 127.023C594.133 127.023 597.18 125.992 599.523 123.93C601.867 121.867 603.086 119.125 603.18 115.703H622.234C622.188 120.859 620.781 125.594 618.016 129.906C615.25 134.172 611.453 137.5 606.625 139.891C601.844 142.234 596.547 143.406 590.734 143.406C579.859 143.406 571.281 139.961 565 133.07C558.719 126.133 555.578 116.57 555.578 104.383V103.047C555.578 91.3281 558.695 81.9766 564.93 74.9922C571.164 68.0078 579.719 64.5156 590.594 64.5156C600.109 64.5156 607.727 67.2344 613.445 72.6719C619.211 78.0625 622.141 85.2578 622.234 94.2578H603.18C603.086 90.3203 601.867 87.1328 599.523 84.6953C597.18 82.2109 594.086 80.9688 590.242 80.9688C585.508 80.9688 581.922 82.7031 579.484 86.1719C577.094 89.5938 575.898 95.1719 575.898 102.906V105.016C575.898 112.844 577.094 118.469 579.484 121.891C581.875 125.312 585.508 127.023 590.383 127.023ZM668.852 143.406C657.695 143.406 648.602 139.984 641.57 133.141C634.586 126.297 631.094 117.18 631.094 105.789V103.82C631.094 96.1797 632.57 89.3594 635.523 83.3594C638.477 77.3125 642.648 72.6719 648.039 69.4375C653.477 66.1562 659.664 64.5156 666.602 64.5156C677.008 64.5156 685.188 67.7969 691.141 74.3594C697.141 80.9219 700.141 90.2266 700.141 102.273V110.57H651.695C652.352 115.539 654.32 119.523 657.602 122.523C660.93 125.523 665.125 127.023 670.188 127.023C678.016 127.023 684.133 124.188 688.539 118.516L698.523 129.695C695.477 134.008 691.352 137.383 686.148 139.82C680.945 142.211 675.18 143.406 668.852 143.406ZM666.531 80.9688C662.5 80.9688 659.219 82.3281 656.688 85.0469C654.203 87.7656 652.609 91.6562 651.906 96.7188H680.172V95.1016C680.078 90.6016 678.859 87.1328 676.516 84.6953C674.172 82.2109 670.844 80.9688 666.531 80.9688ZM829.938 129.062C826.141 133.609 820.773 137.148 813.836 139.68C806.898 142.164 799.211 143.406 790.773 143.406C781.914 143.406 774.133 141.484 767.43 137.641C760.773 133.75 755.617 128.125 751.961 120.766C748.352 113.406 746.5 104.758 746.406 94.8203V87.8594C746.406 77.6406 748.117 68.8047 751.539 61.3516C755.008 53.8516 759.977 48.1328 766.445 44.1953C772.961 40.2109 780.578 38.2188 789.297 38.2188C801.438 38.2188 810.93 41.125 817.773 46.9375C824.617 52.7031 828.672 61.1172 829.938 72.1797H809.406C808.469 66.3203 806.383 62.0313 803.148 59.3125C799.961 56.5937 795.555 55.2344 789.93 55.2344C782.758 55.2344 777.297 57.9297 773.547 63.3203C769.797 68.7109 767.898 76.7266 767.852 87.3672V93.9062C767.852 104.641 769.891 112.75 773.969 118.234C778.047 123.719 784.023 126.461 791.898 126.461C799.82 126.461 805.469 124.773 808.844 121.398V103.75H789.648V88.2109H829.938V129.062ZM888.508 84.9766C885.742 84.6016 883.305 84.4141 881.195 84.4141C873.508 84.4141 868.469 87.0156 866.078 92.2188V142H845.758V65.9219H864.953L865.516 74.9922C869.594 68.0078 875.242 64.5156 882.461 64.5156C884.711 64.5156 886.82 64.8203 888.789 65.4297L888.508 84.9766ZM931.961 143.406C920.805 143.406 911.711 139.984 904.68 133.141C897.695 126.297 894.203 117.18 894.203 105.789V103.82C894.203 96.1797 895.68 89.3594 898.633 83.3594C901.586 77.3125 905.758 72.6719 911.148 69.4375C916.586 66.1562 922.773 64.5156 929.711 64.5156C940.117 64.5156 948.297 67.7969 954.25 74.3594C960.25 80.9219 963.25 90.2266 963.25 102.273V110.57H914.805C915.461 115.539 917.43 119.523 920.711 122.523C924.039 125.523 928.234 127.023 933.297 127.023C941.125 127.023 947.242 124.188 951.648 118.516L961.633 129.695C958.586 134.008 954.461 137.383 949.258 139.82C944.055 142.211 938.289 143.406 931.961 143.406ZM929.641 80.9688C925.609 80.9688 922.328 82.3281 919.797 85.0469C917.312 87.7656 915.719 91.6562 915.016 96.7188H943.281V95.1016C943.188 90.6016 941.969 87.1328 939.625 84.6953C937.281 82.2109 933.953 80.9688 929.641 80.9688ZM1002.27 113.242L1016.34 65.9219H1038.13L1007.55 153.812L1005.86 157.82C1001.31 167.758 993.812 172.727 983.359 172.727C980.406 172.727 977.406 172.281 974.359 171.391V155.992L977.453 156.062C981.297 156.062 984.156 155.477 986.031 154.305C987.953 153.133 989.453 151.188 990.531 148.469L992.922 142.211L966.273 65.9219H988.141L1002.27 113.242Z" fill="white"/>
<path d="M326.312 223.306H315.458V242H309.332V195.789H324.63C329.835 195.789 333.834 196.974 336.627 199.344C339.441 201.714 340.848 205.162 340.848 209.69C340.848 212.568 340.065 215.075 338.5 217.212C336.955 219.349 334.797 220.947 332.025 222.005L342.879 241.619V242H336.341L326.312 223.306ZM315.458 218.323H324.82C327.846 218.323 330.248 217.54 332.025 215.975C333.823 214.409 334.723 212.314 334.723 209.69C334.723 206.834 333.866 204.644 332.152 203.121C330.459 201.597 328.005 200.825 324.789 200.804H315.458V218.323ZM362.748 242.635C358.093 242.635 354.305 241.111 351.385 238.064C348.465 234.996 347.005 230.902 347.005 225.782V224.703C347.005 221.296 347.651 218.26 348.941 215.594C350.253 212.907 352.073 210.812 354.4 209.31C356.749 207.786 359.288 207.024 362.018 207.024C366.482 207.024 369.952 208.495 372.428 211.436C374.903 214.377 376.141 218.588 376.141 224.068V226.512H352.877C352.962 229.897 353.945 232.637 355.829 234.732C357.733 236.806 360.145 237.842 363.065 237.842C365.139 237.842 366.895 237.419 368.333 236.573C369.772 235.726 371.031 234.605 372.11 233.208L375.697 236.001C372.819 240.424 368.503 242.635 362.748 242.635ZM362.018 211.849C359.648 211.849 357.659 212.716 356.051 214.451C354.443 216.165 353.448 218.577 353.067 221.688H370.27V221.243C370.1 218.26 369.296 215.953 367.857 214.324C366.419 212.674 364.472 211.849 362.018 211.849ZM411.974 225.21C411.974 230.437 410.778 234.647 408.387 237.842C405.996 241.037 402.759 242.635 398.675 242.635C394.507 242.635 391.227 241.312 388.836 238.667V255.203H382.965V207.659H388.329L388.614 211.468C391.005 208.506 394.327 207.024 398.58 207.024C402.706 207.024 405.965 208.58 408.355 211.69C410.768 214.8 411.974 219.127 411.974 224.671V225.21ZM406.102 224.544C406.102 220.672 405.277 217.614 403.626 215.372C401.976 213.129 399.712 212.007 396.834 212.007C393.28 212.007 390.614 213.584 388.836 216.736V233.145C390.593 236.277 393.28 237.842 396.898 237.842C399.712 237.842 401.944 236.731 403.595 234.51C405.266 232.267 406.102 228.945 406.102 224.544ZM440.665 242C440.326 241.323 440.051 240.117 439.84 238.382C437.11 241.217 433.852 242.635 430.064 242.635C426.679 242.635 423.897 241.683 421.717 239.778C419.559 237.853 418.48 235.42 418.48 232.479C418.48 228.903 419.834 226.131 422.542 224.163C425.272 222.174 429.102 221.18 434.032 221.18H439.745V218.482C439.745 216.43 439.131 214.8 437.904 213.594C436.677 212.367 434.868 211.753 432.477 211.753C430.382 211.753 428.626 212.282 427.208 213.34C425.79 214.398 425.082 215.678 425.082 217.181H419.178C419.178 215.467 419.781 213.816 420.987 212.229C422.215 210.621 423.865 209.352 425.938 208.421C428.033 207.49 430.329 207.024 432.826 207.024C436.782 207.024 439.882 208.019 442.125 210.008C444.368 211.976 445.532 214.694 445.616 218.165V233.97C445.616 237.123 446.018 239.63 446.822 241.492V242H440.665ZM430.921 237.525C432.762 237.525 434.508 237.049 436.158 236.097C437.809 235.145 439.004 233.907 439.745 232.383V225.337H435.143C427.949 225.337 424.352 227.443 424.352 231.653C424.352 233.494 424.965 234.933 426.192 235.97C427.42 237.007 428.996 237.525 430.921 237.525ZM471.419 212.928C470.531 212.78 469.568 212.706 468.531 212.706C464.68 212.706 462.067 214.345 460.692 217.625V242H454.82V207.659H460.533L460.628 211.626C462.554 208.558 465.283 207.024 468.817 207.024C469.959 207.024 470.827 207.173 471.419 207.469V212.928ZM496.778 242C496.44 241.323 496.165 240.117 495.953 238.382C493.224 241.217 489.965 242.635 486.178 242.635C482.792 242.635 480.01 241.683 477.831 239.778C475.672 237.853 474.593 235.42 474.593 232.479C474.593 228.903 475.947 226.131 478.656 224.163C481.385 222.174 485.215 221.18 490.145 221.18H495.858V218.482C495.858 216.43 495.244 214.8 494.017 213.594C492.79 212.367 490.981 211.753 488.59 211.753C486.495 211.753 484.739 212.282 483.321 213.34C481.904 214.398 481.195 215.678 481.195 217.181H475.292C475.292 215.467 475.895 213.816 477.101 212.229C478.328 210.621 479.978 209.352 482.052 208.421C484.146 207.49 486.442 207.024 488.939 207.024C492.896 207.024 495.995 208.019 498.238 210.008C500.481 211.976 501.645 214.694 501.729 218.165V233.97C501.729 237.123 502.132 239.63 502.936 241.492V242H496.778ZM487.035 237.525C488.875 237.525 490.621 237.049 492.271 236.097C493.922 235.145 495.117 233.907 495.858 232.383V225.337H491.256C484.062 225.337 480.465 227.443 480.465 231.653C480.465 233.494 481.078 234.933 482.306 235.97C483.533 237.007 485.109 237.525 487.035 237.525ZM524.708 237.842C526.803 237.842 528.633 237.208 530.199 235.938C531.764 234.668 532.632 233.082 532.801 231.177H538.355C538.25 233.145 537.573 235.018 536.324 236.795C535.076 238.572 533.404 239.99 531.31 241.048C529.236 242.106 527.035 242.635 524.708 242.635C520.032 242.635 516.308 241.08 513.536 237.969C510.785 234.838 509.41 230.564 509.41 225.147V224.163C509.41 220.82 510.024 217.847 511.251 215.245C512.478 212.642 514.234 210.621 516.52 209.183C518.826 207.744 521.545 207.024 524.676 207.024C528.527 207.024 531.722 208.178 534.261 210.484C536.821 212.79 538.186 215.784 538.355 219.466H532.801C532.632 217.244 531.786 215.424 530.262 214.007C528.76 212.568 526.898 211.849 524.676 211.849C521.693 211.849 519.376 212.928 517.726 215.086C516.096 217.223 515.282 220.323 515.282 224.385V225.496C515.282 229.453 516.096 232.5 517.726 234.637C519.355 236.774 521.682 237.842 524.708 237.842ZM525.66 242.286L525.279 243.936C528.517 244.507 530.135 246.338 530.135 249.427C530.135 251.479 529.289 253.098 527.596 254.283C525.903 255.489 523.544 256.092 520.519 256.092L520.296 252.696C521.968 252.696 523.259 252.421 524.168 251.871C525.099 251.32 525.565 250.548 525.565 249.554C525.565 248.623 525.226 247.935 524.549 247.491C523.872 247.046 522.497 246.729 520.423 246.539L521.439 242.286H525.66ZM543.402 224.512C543.402 221.148 544.058 218.122 545.37 215.435C546.703 212.748 548.543 210.674 550.892 209.214C553.262 207.754 555.96 207.024 558.985 207.024C563.661 207.024 567.438 208.643 570.316 211.88C573.215 215.118 574.664 219.424 574.664 224.798V225.21C574.664 228.554 574.019 231.558 572.728 234.224C571.458 236.869 569.628 238.932 567.237 240.413C564.868 241.894 562.138 242.635 559.049 242.635C554.394 242.635 550.617 241.016 547.718 237.779C544.841 234.542 543.402 230.257 543.402 224.925V224.512ZM549.305 225.21C549.305 229.019 550.183 232.076 551.939 234.383C553.717 236.689 556.087 237.842 559.049 237.842C562.032 237.842 564.402 236.679 566.158 234.351C567.914 232.002 568.792 228.723 568.792 224.512C568.792 220.746 567.893 217.699 566.095 215.372C564.317 213.023 561.948 211.849 558.985 211.849C556.087 211.849 553.749 213.002 551.971 215.308C550.194 217.614 549.305 220.915 549.305 225.21ZM570.03 194.266C570.03 196.551 569.374 198.402 568.062 199.82C566.772 201.237 565.153 201.946 563.207 201.946C562.339 201.946 561.588 201.84 560.953 201.629C560.318 201.417 559.483 200.984 558.446 200.328C557.43 199.672 556.69 199.28 556.224 199.153C555.78 199.005 555.261 198.931 554.669 198.931C553.801 198.931 553.061 199.27 552.447 199.947C551.834 200.603 551.527 201.449 551.527 202.486L547.591 202.264C547.591 200 548.226 198.127 549.496 196.646C550.786 195.165 552.416 194.424 554.383 194.424C555.124 194.424 555.79 194.53 556.383 194.742C556.975 194.953 557.779 195.366 558.795 195.979C559.811 196.593 560.583 196.995 561.112 197.186C561.662 197.376 562.265 197.471 562.921 197.471C563.831 197.471 564.582 197.111 565.174 196.392C565.788 195.673 566.095 194.837 566.095 193.885L570.03 194.266ZM596.278 242.635C591.623 242.635 587.835 241.111 584.916 238.064C581.996 234.996 580.536 230.902 580.536 225.782V224.703C580.536 221.296 581.181 218.26 582.472 215.594C583.784 212.907 585.603 210.812 587.931 209.31C590.279 207.786 592.818 207.024 595.548 207.024C600.012 207.024 603.482 208.495 605.958 211.436C608.434 214.377 609.671 218.588 609.671 224.068V226.512H586.407C586.492 229.897 587.476 232.637 589.359 234.732C591.263 236.806 593.675 237.842 596.595 237.842C598.669 237.842 600.425 237.419 601.864 236.573C603.303 235.726 604.562 234.605 605.641 233.208L609.227 236.001C606.349 240.424 602.033 242.635 596.278 242.635ZM595.548 211.849C593.178 211.849 591.189 212.716 589.581 214.451C587.973 216.165 586.979 218.577 586.598 221.688H603.8V221.243C603.631 218.26 602.826 215.953 601.388 214.324C599.949 212.674 598.002 211.849 595.548 211.849ZM636.49 232.891C636.49 231.304 635.887 230.077 634.681 229.209C633.496 228.321 631.412 227.559 628.429 226.924C625.466 226.29 623.107 225.528 621.351 224.639C619.616 223.75 618.325 222.693 617.479 221.465C616.654 220.238 616.241 218.778 616.241 217.085C616.241 214.271 617.426 211.891 619.796 209.944C622.187 207.998 625.234 207.024 628.937 207.024C632.83 207.024 635.982 208.029 638.395 210.04C640.828 212.05 642.044 214.62 642.044 217.752H636.141C636.141 216.144 635.453 214.758 634.078 213.594C632.724 212.431 631.01 211.849 628.937 211.849C626.799 211.849 625.128 212.314 623.922 213.245C622.716 214.176 622.113 215.393 622.113 216.895C622.113 218.313 622.674 219.381 623.795 220.101C624.916 220.82 626.937 221.508 629.857 222.164C632.798 222.819 635.178 223.602 636.998 224.512C638.818 225.422 640.161 226.522 641.029 227.813C641.917 229.083 642.362 230.638 642.362 232.479C642.362 235.547 641.135 238.012 638.68 239.874C636.226 241.714 633.041 242.635 629.127 242.635C626.376 242.635 623.943 242.148 621.827 241.175C619.711 240.201 618.05 238.847 616.844 237.112C615.659 235.356 615.067 233.462 615.067 231.431H620.938C621.044 233.399 621.827 234.965 623.287 236.128C624.768 237.271 626.715 237.842 629.127 237.842C631.349 237.842 633.126 237.398 634.459 236.509C635.813 235.599 636.49 234.393 636.49 232.891ZM673.592 242H667.499V195.789H673.592V242ZM689.398 207.659L689.588 211.976C692.212 208.675 695.64 207.024 699.872 207.024C707.129 207.024 710.79 211.119 710.853 219.307V242H704.981V219.275C704.96 216.8 704.389 214.97 703.268 213.785C702.167 212.6 700.443 212.007 698.094 212.007C696.19 212.007 694.518 212.515 693.08 213.531C691.641 214.546 690.519 215.879 689.715 217.53V242H683.844V207.659H689.398ZM722.596 242V212.198H717.169V207.659H722.596V204.136C722.596 200.455 723.58 197.609 725.548 195.599C727.516 193.589 730.298 192.583 733.895 192.583C735.249 192.583 736.593 192.763 737.926 193.123L737.608 197.884C736.614 197.693 735.556 197.598 734.435 197.598C732.53 197.598 731.06 198.159 730.023 199.28C728.986 200.381 728.468 201.967 728.468 204.041V207.659H735.799V212.198H728.468V242H722.596ZM740.75 224.512C740.75 221.148 741.406 218.122 742.718 215.435C744.051 212.748 745.892 210.674 748.241 209.214C750.611 207.754 753.308 207.024 756.334 207.024C761.01 207.024 764.787 208.643 767.665 211.88C770.563 215.118 772.013 219.424 772.013 224.798V225.21C772.013 228.554 771.367 231.558 770.077 234.224C768.807 236.869 766.977 238.932 764.586 240.413C762.216 241.894 759.487 242.635 756.397 242.635C751.743 242.635 747.966 241.016 745.067 237.779C742.189 234.542 740.75 230.257 740.75 224.925V224.512ZM746.654 225.21C746.654 229.019 747.532 232.076 749.288 234.383C751.065 236.689 753.435 237.842 756.397 237.842C759.381 237.842 761.751 236.679 763.507 234.351C765.263 232.002 766.141 228.723 766.141 224.512C766.141 220.746 765.242 217.699 763.443 215.372C761.666 213.023 759.296 211.849 756.334 211.849C753.435 211.849 751.097 213.002 749.32 215.308C747.542 217.614 746.654 220.915 746.654 225.21ZM795.975 212.928C795.086 212.78 794.124 212.706 793.087 212.706C789.236 212.706 786.623 214.345 785.248 217.625V242H779.376V207.659H785.089L785.184 211.626C787.11 208.558 789.839 207.024 793.373 207.024C794.515 207.024 795.383 207.173 795.975 207.469V212.928ZM806.925 207.659L807.083 211.468C809.601 208.506 812.997 207.024 817.271 207.024C822.075 207.024 825.344 208.865 827.079 212.547C828.221 210.896 829.702 209.563 831.522 208.548C833.363 207.532 835.532 207.024 838.028 207.024C845.561 207.024 849.391 211.013 849.518 218.99V242H843.646V219.339C843.646 216.884 843.085 215.054 841.964 213.848C840.842 212.621 838.959 212.007 836.314 212.007C834.135 212.007 832.326 212.663 830.887 213.975C829.448 215.266 828.613 217.011 828.38 219.212V242H822.477V219.498C822.477 214.504 820.033 212.007 815.145 212.007C811.294 212.007 808.66 213.647 807.242 216.927V242H801.371V207.659H806.925ZM879.605 242C879.267 241.323 878.992 240.117 878.78 238.382C876.051 241.217 872.792 242.635 869.005 242.635C865.619 242.635 862.837 241.683 860.658 239.778C858.5 237.853 857.42 235.42 857.42 232.479C857.42 228.903 858.775 226.131 861.483 224.163C864.212 222.174 868.042 221.18 872.972 221.18H878.685V218.482C878.685 216.43 878.071 214.8 876.844 213.594C875.617 212.367 873.808 211.753 871.417 211.753C869.322 211.753 867.566 212.282 866.148 213.34C864.731 214.398 864.022 215.678 864.022 217.181H858.119C858.119 215.467 858.722 213.816 859.928 212.229C861.155 210.621 862.805 209.352 864.879 208.421C866.974 207.49 869.269 207.024 871.766 207.024C875.723 207.024 878.823 208.019 881.065 210.008C883.308 211.976 884.472 214.694 884.557 218.165V233.97C884.557 237.123 884.959 239.63 885.763 241.492V242H879.605ZM869.862 237.525C871.703 237.525 873.448 237.049 875.099 236.097C876.749 235.145 877.944 233.907 878.685 232.383V225.337H874.083C866.889 225.337 863.292 227.443 863.292 231.653C863.292 233.494 863.906 234.933 865.133 235.97C866.36 237.007 867.936 237.525 869.862 237.525ZM875.289 193.25H882.398L873.893 202.581H869.164L875.289 193.25ZM901.727 199.344V207.659H908.138V212.198H901.727V233.494C901.727 234.869 902.013 235.906 902.584 236.604C903.155 237.282 904.129 237.62 905.504 237.62C906.181 237.62 907.112 237.493 908.297 237.239V242C906.752 242.423 905.25 242.635 903.79 242.635C901.166 242.635 899.188 241.841 897.855 240.254C896.522 238.667 895.855 236.414 895.855 233.494V212.198H889.603V207.659H895.855V199.344H901.727ZM921.405 242H915.533V207.659H921.405V242ZM915.057 198.55C915.057 197.598 915.343 196.794 915.914 196.138C916.507 195.482 917.374 195.154 918.517 195.154C919.659 195.154 920.527 195.482 921.119 196.138C921.712 196.794 922.008 197.598 922.008 198.55C922.008 199.502 921.712 200.296 921.119 200.931C920.527 201.565 919.659 201.883 918.517 201.883C917.374 201.883 916.507 201.565 915.914 200.931C915.343 200.296 915.057 199.502 915.057 198.55ZM944.605 237.842C946.7 237.842 948.53 237.208 950.096 235.938C951.662 234.668 952.529 233.082 952.699 231.177H958.253C958.147 233.145 957.47 235.018 956.222 236.795C954.973 238.572 953.302 239.99 951.207 241.048C949.133 242.106 946.933 242.635 944.605 242.635C939.929 242.635 936.205 241.08 933.434 237.969C930.683 234.838 929.308 230.564 929.308 225.147V224.163C929.308 220.82 929.921 217.847 931.148 215.245C932.376 212.642 934.132 210.621 936.417 209.183C938.723 207.744 941.442 207.024 944.574 207.024C948.425 207.024 951.62 208.178 954.159 210.484C956.719 212.79 958.084 215.784 958.253 219.466H952.699C952.529 217.244 951.683 215.424 950.16 214.007C948.657 212.568 946.795 211.849 944.574 211.849C941.59 211.849 939.273 212.928 937.623 215.086C935.994 217.223 935.179 220.323 935.179 224.385V225.496C935.179 229.453 935.994 232.5 937.623 234.637C939.252 236.774 941.58 237.842 944.605 237.842ZM986.056 242C985.717 241.323 985.442 240.117 985.23 238.382C982.501 241.217 979.243 242.635 975.455 242.635C972.07 242.635 969.287 241.683 967.108 239.778C964.95 237.853 963.871 235.42 963.871 232.479C963.871 228.903 965.225 226.131 967.933 224.163C970.663 222.174 974.492 221.18 979.422 221.18H985.135V218.482C985.135 216.43 984.522 214.8 983.294 213.594C982.067 212.367 980.258 211.753 977.867 211.753C975.772 211.753 974.016 212.282 972.599 213.34C971.181 214.398 970.472 215.678 970.472 217.181H964.569C964.569 215.467 965.172 213.816 966.378 212.229C967.605 210.621 969.256 209.352 971.329 208.421C973.424 207.49 975.72 207.024 978.216 207.024C982.173 207.024 985.273 208.019 987.516 210.008C989.758 211.976 990.922 214.694 991.007 218.165V233.97C991.007 237.123 991.409 239.63 992.213 241.492V242H986.056ZM976.312 237.525C978.153 237.525 979.898 237.049 981.549 236.097C983.199 235.145 984.395 233.907 985.135 232.383V225.337H980.533C973.339 225.337 969.742 227.443 969.742 231.653C969.742 233.494 970.356 234.933 971.583 235.97C972.81 237.007 974.387 237.525 976.312 237.525ZM1020.21 232.891C1020.21 231.304 1019.6 230.077 1018.4 229.209C1017.21 228.321 1015.13 227.559 1012.14 226.924C1009.18 226.29 1006.82 225.528 1005.07 224.639C1003.33 223.75 1002.04 222.693 1001.19 221.465C1000.37 220.238 999.957 218.778 999.957 217.085C999.957 214.271 1001.14 211.891 1003.51 209.944C1005.9 207.998 1008.95 207.024 1012.65 207.024C1016.55 207.024 1019.7 208.029 1022.11 210.04C1024.54 212.05 1025.76 214.62 1025.76 217.752H1019.86C1019.86 216.144 1019.17 214.758 1017.79 213.594C1016.44 212.431 1014.73 211.849 1012.65 211.849C1010.52 211.849 1008.84 212.314 1007.64 213.245C1006.43 214.176 1005.83 215.393 1005.83 216.895C1005.83 218.313 1006.39 219.381 1007.51 220.101C1008.63 220.82 1010.65 221.508 1013.57 222.164C1016.51 222.819 1018.89 223.602 1020.71 224.512C1022.53 225.422 1023.88 226.522 1024.74 227.813C1025.63 229.083 1026.08 230.638 1026.08 232.479C1026.08 235.547 1024.85 238.012 1022.4 239.874C1019.94 241.714 1016.76 242.635 1012.84 242.635C1010.09 242.635 1007.66 242.148 1005.54 241.175C1003.43 240.201 1001.77 238.847 1000.56 237.112C999.375 235.356 998.783 233.462 998.783 231.431H1004.65C1004.76 233.399 1005.54 234.965 1007 236.128C1008.48 237.271 1010.43 237.842 1012.84 237.842C1015.06 237.842 1016.84 237.398 1018.17 236.509C1019.53 235.599 1020.21 234.393 1020.21 232.891Z" fill="white"/>
<defs>
<clipPath id="clip0">
<rect width="90" height="90" fill="white" transform="matrix(1 0 0 -1 84 174)"/>
</clipPath>
</defs>
</svg>
