<svg width="32" height="32" viewBox="0 0 32 32" fill="none" xmlns="http://www.w3.org/2000/svg">
<g clip-path="url(#clip0)">
<path d="M31.3333 8.676C31.1521 8.02964 30.7992 7.44446 30.312 6.98267C29.811 6.50667 29.197 6.16618 28.528 5.99333C26.024 5.33333 15.992 5.33333 15.992 5.33333C11.8097 5.28575 7.62854 5.49503 3.47197 5.96C2.80289 6.14562 2.19005 6.49372 1.68797 6.97333C1.19464 7.448 0.837302 8.03333 0.650635 8.67467C0.202226 11.0903 -0.0156422 13.5431 -3.15811e-05 16C-0.0160316 18.4547 0.201302 20.9067 0.650635 23.3253C0.833302 23.964 1.1893 24.5467 1.68397 25.0173C2.17864 25.488 2.79464 25.828 3.47197 26.008C6.0093 26.6667 15.992 26.6667 15.992 26.6667C20.1795 26.7143 24.3661 26.505 28.528 26.04C29.197 25.8672 29.811 25.5267 30.312 25.0507C30.8053 24.58 31.156 23.9947 31.332 23.3573C31.7921 20.9426 32.0158 18.4888 32 16.0307C32.0346 13.5621 31.8111 11.0968 31.3333 8.67467V8.676ZM12.8026 20.5653V11.436L21.1493 16.0013L12.8026 20.5653Z" fill="white"/>
</g>
<defs>
<clipPath id="clip0">
<rect width="32" height="32" fill="white"/>
</clipPath>
</defs>
</svg>
