<svg width="64" height="64" viewBox="0 0 64 64" fill="none" xmlns="http://www.w3.org/2000/svg">
<g clip-path="url(#clip0)">
<path d="M62.6667 17.352C62.3043 16.0593 61.5984 14.8889 60.624 13.9653C59.6221 13.0133 58.3941 12.3324 57.056 11.9867C52.048 10.6667 31.984 10.6667 31.984 10.6667C23.6195 10.5715 15.2571 10.9901 6.944 11.92C5.60584 12.2912 4.38017 12.9874 3.376 13.9467C2.38933 14.896 1.67466 16.0667 1.30133 17.3493C0.404512 22.1806 -0.0312234 27.0863 -2.12726e-06 32C-0.0320021 36.9093 0.402665 41.8133 1.30133 46.6507C1.66666 47.928 2.37866 49.0933 3.368 50.0347C4.35733 50.976 5.58933 51.656 6.944 52.016C12.0187 53.3333 31.984 53.3333 31.984 53.3333C40.3591 53.4286 48.7322 53.0101 57.056 52.08C58.3941 51.7343 59.6221 51.0533 60.624 50.1013C61.6107 49.16 62.312 47.9893 62.664 46.7147C63.5842 41.8852 64.0317 36.9776 64 32.0613C64.0692 27.1243 63.6223 22.1935 62.6667 17.3493V17.352ZM25.6053 41.1307V22.872L42.2987 32.0027L25.6053 41.1307Z" fill="white"/>
</g>
<defs>
<clipPath id="clip0">
<rect width="64" height="64" fill="white"/>
</clipPath>
</defs>
</svg>
