<svg width="32" height="32" viewBox="0 0 32 32" fill="none" xmlns="http://www.w3.org/2000/svg">
<path d="M1.05001 21.1C0.60001 17.7 2.70001 12.25 3.70001 4.89995C3.90001 3.59995 10.7 2.19995 13.9 2.19995C14.7 2.19995 15.4 5.94995 15.2 7.24995C15.05 8.19995 13.7 7.94995 13.7 7.94995C13.25 9.19995 11.9 8.69995 11.9 8.69995C11.5 9.74995 10.3 9.24995 10.3 9.24995C9.80001 10.25 8.70001 9.74995 8.70001 9.74995C7.70001 14.1 9.55001 13.7 10.9 20.25C10.9 20.25 11.3 20.2 12.35 18.05C16.65 9.39995 31.75 12.15 30.85 21.45C30.65 23.5 32.85 26.9 24.7 29.45C18.25 31.45 10.35 27.6 10.35 27.6C7.65001 28.45 2.40001 28.4 2.25001 26.4C2.10001 24.0499 1.30001 22.85 1.05001 21.1Z" fill="#FFDD67"/>
<path d="M30.9 21.4499C31.1 19.2499 30.45 17.4499 29.25 16.1499C29.95 17.3499 30.3 18.7999 30.15 20.4999C29.95 22.5499 32.15 25.9499 24 28.4999C17.55 30.4999 9.64999 26.6499 9.64999 26.6499C7.54999 27.2999 3.84999 27.3999 2.29999 26.4499C2.49999 28.3999 7.69999 28.4499 10.4 27.5999C10.4 27.5999 18.3 31.4499 24.75 29.4499C32.85 26.8999 30.7 23.4999 30.9 21.4499Z" fill="#EBA352"/>
<path d="M8.14999 9.69995C6.89999 14.8 8.94999 14.6 10.3 21.05L11 20.3C9.99999 13.8 8.29999 14.6 8.69999 9.79995C8.39999 9.79995 8.14999 9.69995 8.14999 9.69995Z" fill="#EBA352"/>
<path d="M14.6 24.2499C18.75 25.7999 25 24.1999 28.55 22.5499C27 26.2999 18.75 28.2999 14.6 24.2499Z" fill="#EBA352"/>
<path d="M12.55 3.5999C12.25 3.0499 11.65 3.0999 11.25 3.2499C11.3 2.6499 12.75 2.1999 12.55 3.5999Z" fill="#EBA352"/>
<path d="M15.6 5.7499C15.45 4.6499 15.1 3.5499 14.45 2.6499C14.8 3.5999 15 4.5999 15 5.5999C15 6.0499 15.1 7.6499 14.3 7.4499C13.8 7.2999 13.8 6.8999 13.65 6.4499C13.45 5.7499 13.05 4.9999 13.1 4.2999C12.9 4.9999 13.15 5.8499 13.2 6.5499C13.25 6.9499 13.55 8.0999 13 8.2499C12.7 8.3499 12.35 8.1499 12.1 7.9999C12 7.9499 11.95 7.5499 11.9 7.3999C11.7 6.6999 11.3 5.8999 11.35 5.1499C11.15 5.7999 11.35 6.5999 11.4 7.2999C11.45 7.6999 11.65 8.6499 11.15 8.8499C10.55 9.1499 10.5 8.4499 10.4 8.0999C10.2 7.4499 9.89998 6.6999 9.89998 5.9999C9.69998 6.8499 9.94998 7.8499 9.94998 8.6999C9.94998 9.1499 8.99998 9.4999 8.64998 9.2499C8.09998 8.8499 7.99998 7.8499 7.89998 7.1999C8.04998 7.3999 8.29998 7.6999 8.59998 7.6499C8.34998 7.3499 8.19998 6.8999 8.04998 6.5499C7.89998 6.2499 7.54998 5.5999 7.14998 5.5999C7.19998 5.6999 7.54998 6.5499 7.49998 6.5999C7.34998 6.8499 7.19998 7.1499 6.99998 7.3999C6.84998 7.5999 6.39998 8.2999 6.04998 8.0999C5.64998 7.8499 5.54998 7.2499 5.44998 6.8499C5.49998 7.3499 5.44998 8.0999 5.94998 8.3999C6.39998 8.6999 6.94998 8.2499 7.24998 7.9499C7.34998 8.9499 7.79998 10.2999 9.04998 10.1999C9.29998 10.1999 9.59998 10.0999 9.84998 9.9999C10.05 9.8999 10.3 9.6499 10.5 9.7499C11.05 9.8999 11.6 9.7999 12 9.3999C12.2 9.1999 12.15 9.0999 12.4 9.1499C12.7 9.1999 13 9.2499 13.25 9.1499C13.5 9.0999 13.7 8.9499 13.85 8.7499C13.95 8.6499 14 8.5499 14.05 8.3999C14.15 8.1999 14.25 8.2999 14.45 8.2999C15.75 8.2999 15.7 6.6499 15.6 5.7499Z" fill="#EBA352"/>
<path d="M14.35 2.89995C14.05 2.34995 13.45 2.39995 13.05 2.54995C13.1 1.99995 14.6 1.54995 14.35 2.89995Z" fill="#EBA352"/>
<path d="M11.1 4.3499C10.8 3.7999 10.2 3.8499 9.79999 3.9999C9.84999 3.3999 11.3 2.9499 11.1 4.3499Z" fill="#EBA352"/>
<path d="M9.39997 5.14995C9.09997 4.59995 8.49998 4.64995 8.09998 4.79995C8.14998 4.19995 9.64997 3.74995 9.39997 5.14995Z" fill="#EBA352"/>
</svg>
