<svg width="24" height="24" viewBox="0 0 24 24" fill="none" xmlns="http://www.w3.org/2000/svg">
<path fill-rule="evenodd" clip-rule="evenodd" d="M7.465 1.06603C8.638 1.01203 9.012 1.00003 12 1.00003C14.988 1.00003 15.362 1.01303 16.534 1.06603C17.706 1.11903 18.506 1.30603 19.206 1.57703C19.939 1.85403 20.604 2.28703 21.154 2.84703C21.714 3.39603 22.146 4.06003 22.422 4.79403C22.694 5.49403 22.88 6.29403 22.934 7.46403C22.988 8.63903 23 9.01303 23 12C23 14.988 22.987 15.362 22.934 16.535C22.881 17.705 22.694 18.505 22.422 19.205C22.146 19.9391 21.7133 20.6042 21.154 21.154C20.604 21.714 19.939 22.146 19.206 22.422C18.506 22.694 17.706 22.88 16.536 22.934C15.362 22.988 14.988 23 12 23C9.012 23 8.638 22.987 7.465 22.934C6.295 22.881 5.495 22.694 4.795 22.422C4.06092 22.146 3.39582 21.7133 2.846 21.154C2.28638 20.6047 1.85331 19.9399 1.577 19.206C1.306 18.506 1.12 17.706 1.066 16.536C1.012 15.361 1 14.987 1 12C1 9.01203 1.013 8.63803 1.066 7.46603C1.119 6.29403 1.306 5.49403 1.577 4.79403C1.85372 4.06011 2.28712 3.39534 2.847 2.84603C3.39604 2.28653 4.06047 1.85347 4.794 1.57703C5.494 1.30603 6.294 1.12003 7.464 1.06603H7.465ZM16.445 3.04603C15.285 2.99303 14.937 2.98203 12 2.98203C9.063 2.98203 8.715 2.99303 7.555 3.04603C6.482 3.09503 5.9 3.27403 5.512 3.42503C4.999 3.62503 4.632 3.86203 4.247 4.24703C3.88205 4.60208 3.60118 5.03431 3.425 5.51203C3.274 5.90003 3.095 6.48203 3.046 7.55503C2.993 8.71503 2.982 9.06303 2.982 12C2.982 14.937 2.993 15.285 3.046 16.445C3.095 17.518 3.274 18.1 3.425 18.488C3.601 18.965 3.882 19.398 4.247 19.753C4.602 20.118 5.035 20.399 5.512 20.575C5.9 20.726 6.482 20.905 7.555 20.954C8.715 21.007 9.062 21.018 12 21.018C14.938 21.018 15.285 21.007 16.445 20.954C17.518 20.905 18.1 20.726 18.488 20.575C19.001 20.375 19.368 20.138 19.753 19.753C20.118 19.398 20.399 18.965 20.575 18.488C20.726 18.1 20.905 17.518 20.954 16.445C21.007 15.285 21.018 14.937 21.018 12C21.018 9.06303 21.007 8.71503 20.954 7.55503C20.905 6.48203 20.726 5.90003 20.575 5.51203C20.375 4.99903 20.138 4.63203 19.753 4.24703C19.3979 3.8821 18.9657 3.60124 18.488 3.42503C18.1 3.27403 17.518 3.09503 16.445 3.04603ZM10.595 15.391C11.3797 15.7177 12.2534 15.7617 13.0669 15.5158C13.8805 15.2698 14.5834 14.7489 15.0556 14.0423C15.5278 13.3356 15.7401 12.4869 15.656 11.6411C15.572 10.7954 15.197 10.005 14.595 9.40503C14.2112 9.02151 13.7472 8.72784 13.2363 8.54518C12.7255 8.36251 12.1804 8.29539 11.6405 8.34865C11.1006 8.4019 10.5792 8.57421 10.1138 8.85316C9.64845 9.13211 9.25074 9.51077 8.9493 9.96188C8.64786 10.413 8.45019 10.9253 8.37052 11.462C8.29084 11.9987 8.33115 12.5463 8.48854 13.0655C8.64593 13.5848 8.91648 14.0626 9.28072 14.4648C9.64496 14.8669 10.0938 15.1832 10.595 15.391ZM8.002 8.00203C8.52702 7.47701 9.15032 7.06053 9.8363 6.77639C10.5223 6.49225 11.2575 6.346 12 6.346C12.7425 6.346 13.4777 6.49225 14.1637 6.77639C14.8497 7.06053 15.473 7.47701 15.998 8.00203C16.523 8.52706 16.9395 9.15035 17.2236 9.83633C17.5078 10.5223 17.654 11.2575 17.654 12C17.654 12.7425 17.5078 13.4778 17.2236 14.1637C16.9395 14.8497 16.523 15.473 15.998 15.998C14.9377 17.0584 13.4995 17.6541 12 17.6541C10.5005 17.6541 9.06234 17.0584 8.002 15.998C6.94166 14.9377 6.34597 13.4996 6.34597 12C6.34597 10.5005 6.94166 9.06237 8.002 8.00203ZM18.908 7.18803C19.0381 7.0653 19.1423 6.91771 19.2143 6.754C19.2863 6.5903 19.3248 6.4138 19.3274 6.23496C19.33 6.05612 19.2967 5.87858 19.2295 5.71284C19.1622 5.5471 19.0624 5.39654 18.936 5.27007C18.8095 5.1436 18.6589 5.04379 18.4932 4.97655C18.3275 4.90931 18.1499 4.87601 17.9711 4.87861C17.7922 4.88122 17.6157 4.91968 17.452 4.99173C17.2883 5.06377 17.1407 5.16793 17.018 5.29803C16.7793 5.55106 16.6486 5.88715 16.6537 6.23496C16.6588 6.58277 16.7992 6.91491 17.0452 7.16087C17.2911 7.40684 17.6233 7.54726 17.9711 7.55233C18.3189 7.5574 18.655 7.42672 18.908 7.18803Z" fill="#666666"/>
</svg>
