<svg width="32" height="32" viewBox="0 0 32 32" fill="none" xmlns="http://www.w3.org/2000/svg">
<path d="M3 18H29C29 4 27 1 16 1C5 1 3 4 3 18Z" fill="#FFB300"/>
<path d="M27.9 14.95C27.8 15.5 27.7 16 27.55 16.3C27.25 16.8 26.7 17.1 26.7 17.1C26.7 17.1 26.85 16.05 26.8 14.6C26.2 5.90001 25.7 8.30001 16 8.30001C6.3 8.30001 5.8 5.90001 5.2 14.55C5.15 16 5.3 17.1 5.3 17.1C5.3 17.1 4.75 16.8 4.45 16.3C4.3 16 4.2 15.5 4.1 14.95C3.2 14.7 2 14.9 2 17.5C2 19.1 2.6 20.45 4.65 20.6C5.3 25.7 8.3 28.3 13.25 30.55C14.6 31.15 17.4 31.15 18.75 30.55C23.75 28.3 26.7 25.7 27.35 20.6C29.4 20.45 30 19.15 30 17.5C30 14.9 28.8 14.7 27.9 14.95Z" fill="#FFDD67"/>
<path d="M20.5 24.45C20.5 26.15 18.25 27 16 27C13.75 27 11.5 26.15 11.5 24.45C11.5 24.45 11.5 24 11.95 24H20.05C20.5 24 20.5 24.45 20.5 24.45Z" fill="#937237"/>
<path d="M10 14.3C7.5 14.3 6.5 15.2 6.5 16.1C6.5 17 6.5 18.3 9.8 18.3C13 18.3 13.5 17.9 13.5 16.55C13.5 15.65 12.5 14.3 10 14.3Z" fill="#F5F5F5"/>
<path d="M10.25 18.05C11.4926 18.05 12.5 17.0426 12.5 15.8C12.5 14.5574 11.4926 13.55 10.25 13.55C9.00736 13.55 8 14.5574 8 15.8C8 17.0426 9.00736 18.05 10.25 18.05Z" fill="#664E27"/>
<path d="M11 15.8C11 16.2 10.65 16.55 10.25 16.55C9.85 16.55 9.5 16.2 9.5 15.8C9.5 15.4 9.85 15.05 10.25 15.05C10.65 15.05 11 15.4 11 15.8Z" fill="#231F20"/>
<path d="M6.5 16.05C6.5 12.55 13.5 12.55 13.5 16.55C12.5 13.55 7.5 13.55 6.5 16.05Z" fill="#664E27"/>
<path d="M22 14.3C24.5 14.3 25.5 15.2 25.5 16.1C25.5 17 25.5 18.3 22.2 18.3C19 18.3 18.5 17.9 18.5 16.55C18.5 15.65 19.5 14.3 22 14.3Z" fill="#F5F5F5"/>
<path d="M21.75 18.05C22.9926 18.05 24 17.0426 24 15.8C24 14.5574 22.9926 13.55 21.75 13.55C20.5074 13.55 19.5 14.5574 19.5 15.8C19.5 17.0426 20.5074 18.05 21.75 18.05Z" fill="#664E27"/>
<path d="M21 15.8C21 16.2 21.35 16.55 21.75 16.55C22.15 16.55 22.5 16.2 22.5 15.8C22.5 15.4 22.15 15.05 21.75 15.05C21.35 15.05 21 15.4 21 15.8Z" fill="#231F20"/>
<path d="M25.5 16.05C25.5 12.55 18.5 12.55 18.5 16.55C19.5 13.55 24.5 13.55 25.5 16.05Z" fill="#664E27"/>
<path d="M16 22.5C13.9 22.5 12.85 21 13.9 21H18.1C19.15 21 18.1 22.5 16 22.5Z" fill="#EBA352"/>
</svg>
