<svg width="429" height="429" viewBox="0 0 429 429" fill="none" xmlns="http://www.w3.org/2000/svg">
<g opacity="0.1">
<path d="M294.938 160.875C294.938 182.208 286.463 202.668 271.378 217.753C256.293 232.838 235.833 241.312 214.5 241.312C193.167 241.312 172.707 232.838 157.622 217.753C142.537 202.668 134.062 182.208 134.062 160.875C134.062 139.542 142.537 119.082 157.622 103.997C172.707 88.9121 193.167 80.4375 214.5 80.4375C235.833 80.4375 256.293 88.9121 271.378 103.997C286.463 119.082 294.938 139.542 294.938 160.875Z" fill="#666666"/>
<path d="M53.625 0C39.4028 0 25.763 5.64976 15.7064 15.7064C5.64976 25.763 0 39.4028 0 53.625L0 375.375C0 389.597 5.64976 403.237 15.7064 413.294C25.763 423.35 39.4028 429 53.625 429H375.375C389.597 429 403.237 423.35 413.294 413.294C423.35 403.237 429 389.597 429 375.375V53.625C429 39.4028 423.35 25.763 413.294 15.7064C403.237 5.64976 389.597 0 375.375 0L53.625 0ZM375.375 26.8125C382.486 26.8125 389.306 29.6374 394.334 34.6657C399.363 39.694 402.188 46.5139 402.188 53.625V375.375C402.188 382.486 399.363 389.306 394.334 394.334C389.306 399.363 382.486 402.188 375.375 402.188V375.375C375.375 348.562 348.562 268.125 214.5 268.125C80.4375 268.125 53.625 348.562 53.625 375.375V402.188C46.5139 402.188 39.694 399.363 34.6657 394.334C29.6374 389.306 26.8125 382.486 26.8125 375.375V53.625C26.8125 46.5139 29.6374 39.694 34.6657 34.6657C39.694 29.6374 46.5139 26.8125 53.625 26.8125H375.375Z" fill="#666666"/>
</g>
</svg>
