<svg width="32" height="32" viewBox="0 0 32 32" fill="none" xmlns="http://www.w3.org/2000/svg">
<path d="M8.05001 24.25C7.80001 24.2 7.60001 24.15 7.35001 24.05C7.10001 23.95 6.90001 23.9 6.70001 23.8C6.25001 23.6 5.85001 23.35 5.45001 23.05C4.65001 22.5 4.00001 21.75 3.50001 20.85C3.00001 20 2.70001 19 2.65001 18.05C2.60001 17.55 2.65001 17.1 2.70001 16.6C2.75001 16.35 2.80001 16.15 2.85001 15.9C2.90001 15.65 3.00001 15.45 3.05001 15.2L3.10001 15.9C3.10001 16.15 3.15001 16.35 3.20001 16.6C3.25001 17.05 3.35001 17.5 3.45001 17.9C3.65001 18.75 3.95001 19.55 4.40001 20.3C4.85001 21.05 5.35001 21.75 6.00001 22.4C6.30001 22.7 6.65001 23 7.00001 23.3C7.15001 23.45 7.35001 23.6 7.55001 23.75L8.05001 24.25Z" fill="#42ADE2"/>
<path d="M7.9 26.05C7.75 26.15 7.55 26.2 7.35 26.25C7.15 26.3 7 26.35 6.8 26.35C6.45 26.4 6.05 26.45 5.65 26.4C4.9 26.35 4.1 26.15 3.45 25.8C2.75 25.45 2.15 24.9 1.75 24.25C1.55 23.95 1.35 23.6 1.2 23.25C1.15 23.1 1.1 22.9 1.05 22.7C1.05 22.55 1 22.4 1 22.2C1.15 22.35 1.25 22.5 1.35 22.6C1.5 22.75 1.6 22.9 1.7 23C1.95 23.25 2.15 23.5 2.4 23.7C2.9 24.15 3.4 24.55 4 24.85C4.55 25.15 5.2 25.4 5.8 25.6C6.1 25.7 6.45 25.75 6.8 25.85C6.95 25.9 7.15 25.9 7.3 25.95C7.55 26 7.7 26 7.9 26.05Z" fill="#42ADE2"/>
<path d="M19.2 1.75C19.45 1.8 19.65 1.9 19.9 2C20.15 2.1 20.35 2.2 20.55 2.3C21 2.55 21.4 2.8 21.8 3.1C22.6 3.7 23.25 4.5 23.7 5.4C24.15 6.3 24.4 7.3 24.4 8.25C24.4 8.75 24.35 9.2 24.25 9.7C24.2 9.95 24.15 10.15 24.05 10.4C23.95 10.65 23.9 10.85 23.8 11.05L23.75 10.35C23.75 10.1 23.75 9.9 23.7 9.65L23.55 8.3C23.4 7.45 23.1 6.6 22.7 5.8C22.3 5 21.8 4.3 21.2 3.65C20.9 3.3 20.55 3 20.25 2.65C20.1 2.5 19.9 2.35 19.7 2.2L19.2 1.75Z" fill="#42ADE2"/>
<path d="M23.55 1.54999C23.75 1.59999 23.9 1.64999 24.05 1.74999C24.2 1.79999 24.4 1.89999 24.55 1.99999C24.85 2.19999 25.15 2.39999 25.45 2.64999C26 3.14999 26.45 3.74999 26.7 4.44999C27 5.14999 27.1 5.89999 27 6.64999C26.95 6.99999 26.85 7.34999 26.75 7.69999C26.7 7.84999 26.6 8.04999 26.55 8.19999C26.45 8.34999 26.4 8.49999 26.25 8.64999V7.64999C26.25 7.29999 26.2 6.99999 26.2 6.69999C26.1 6.04999 26 5.44999 25.75 4.89999C25.5 4.29999 25.2 3.79999 24.85 3.24999C24.65 2.99999 24.45 2.69999 24.25 2.44999C24.15 2.29999 24.05 2.19999 23.9 2.04999C23.8 1.79999 23.65 1.64999 23.55 1.54999Z" fill="#42ADE2"/>
<path d="M5 9.00002C4 9.45002 3.65 10.65 4.1 11.65L10.4 24.8L13.9 23.15L7.6 9.95002C7.15 8.95002 6 8.50002 5 9.00002Z" fill="#FFDD67"/>
<path d="M21.55 19.45L25.25 17.7L18.05 2.70002C17.55 1.70002 16.35 1.25002 15.3 1.75002C14.3 2.25002 13.85 3.45002 14.35 4.50002L21.55 19.45Z" fill="#FFDD67"/>
<path d="M15.35 1.70002C15.25 1.75002 15.15 1.80002 15.05 1.90002C16 1.65002 17 2.10002 17.45 3.00002L24.65 18L25.3 17.7L18.1 2.70002C17.6 1.65002 16.4 1.20002 15.35 1.70002Z" fill="#EBA352"/>
<path d="M13.9 23.1L17.75 21.25L10.4 5.95C9.89999 4.9 8.6 4.40001 7.55 4.90001C6.5 5.40001 6.05 6.70001 6.55 7.75001L13.9 23.1Z" fill="#FFDD67"/>
<path d="M7.55 4.95C7.45 5 7.35 5.05 7.25 5.15C8.2 4.9 9.3 5.35 9.75 6.3L14.3 15.85L15.4 16.5L10.4 6C9.9 4.9 8.65 4.45 7.55 4.95Z" fill="#EBA352"/>
<path d="M17.15 20.05L21 18.2L13.65 2.9C13.15 1.85 11.85 1.35 10.8 1.9C9.75 2.4 9.3 3.7 9.8 4.75L17.15 20.05Z" fill="#FFDD67"/>
<path d="M10.8 1.85C10.7 1.9 10.6 2 10.5 2.05C11.45 1.8 12.55 2.25 13 3.2L18.15 14L19.25 14.65L13.65 2.9C13.15 1.8 11.85 1.35 10.8 1.85Z" fill="#EBA352"/>
<path d="M5.00001 8.99998C4.90001 9.04998 4.80001 9.09998 4.70001 9.19998C5.60001 8.94998 6.55001 9.39998 6.95001 10.3L10.7 18.15L11.8 18.8L7.60001 9.99998C7.15001 8.94998 6.00001 8.49998 5.00001 8.99998Z" fill="#EBA352"/>
<path d="M30.4 7.49999C29.05 6.44999 26.85 7.59999 25.75 11.2C25 13.7 24.9 14.45 23.3 15.2L22.4 13.35C22.4 13.35 8.20001 20.2 8.75001 21.3C8.75001 21.3 10.45 26.6 13.35 29.05C17.65 32.75 27.7 28.8 28.15 19.25C28.4 13.7 31.85 8.64999 30.4 7.49999Z" fill="#FFDD67"/>
<path d="M30.4 7.49999C30.15 7.29999 29.85 7.19999 29.55 7.14999C29.6 7.19999 29.7 7.19999 29.75 7.24999C31.25 8.39999 29.7 11.05 28.85 13.45C28.15 15.35 27.55 17.3 27.65 19.2C28.05 27.5 19.7 31.45 14.7 29.95C19.6 32 28.7 28.1 28.3 19.45C28.2 17.55 28.75 15.7 29.5 13.7C30.3 11.3 31.85 8.64999 30.4 7.49999Z" fill="#EBA352"/>
<path d="M23.75 15C20.65 15.35 16.1 19.8 19.3 24.65C16.95 19.75 20.8 16.45 23.25 15.3C23.5 15.1 23.75 15 23.75 15Z" fill="#EBA352"/>
</svg>
