<svg width="32" height="32" viewBox="0 0 32 32" fill="none" xmlns="http://www.w3.org/2000/svg">
<path fill-rule="evenodd" clip-rule="evenodd" d="M1.33337 3.784C1.33337 3.13404 1.59157 2.5107 2.05116 2.05112C2.51075 1.59153 3.13408 1.33333 3.78404 1.33333H28.2134C28.5355 1.33281 28.8545 1.39582 29.1522 1.51875C29.4499 1.64169 29.7205 1.82214 29.9484 2.04978C30.1763 2.27742 30.357 2.54776 30.4803 2.84534C30.6035 3.14293 30.6669 3.4619 30.6667 3.784V28.2133C30.6671 28.5355 30.6039 28.8546 30.4808 29.1523C30.3577 29.45 30.1771 29.7205 29.9494 29.9484C29.7217 30.1763 29.4512 30.357 29.1536 30.4803C28.8559 30.6035 28.5369 30.6668 28.2147 30.6667H3.78404C3.4621 30.6667 3.14332 30.6032 2.8459 30.48C2.54849 30.3568 2.27827 30.1761 2.05069 29.9484C1.8231 29.7207 1.64262 29.4504 1.51954 29.1529C1.39646 28.8554 1.3332 28.5366 1.33337 28.2147V3.784ZM12.944 12.5173H16.916V14.512C17.4894 13.3653 18.956 12.3333 21.16 12.3333C25.3854 12.3333 26.3867 14.6173 26.3867 18.808V26.5707H22.1107V19.7627C22.1107 17.376 21.5374 16.0293 20.0814 16.0293C18.0614 16.0293 17.2214 17.4813 17.2214 19.7627V26.5707H12.944V12.5173ZM5.61071 26.388H9.88804V12.3333H5.61071V26.3867V26.388ZM10.5 7.74933C10.5081 8.11556 10.4429 8.47971 10.3084 8.82042C10.1738 9.16112 9.97251 9.47151 9.71635 9.73338C9.46019 9.99524 9.15431 10.2033 8.81665 10.3453C8.47899 10.4874 8.11636 10.5606 7.75004 10.5606C7.38372 10.5606 7.02109 10.4874 6.68343 10.3453C6.34578 10.2033 6.03989 9.99524 5.78373 9.73338C5.52757 9.47151 5.3263 9.16112 5.19172 8.82042C5.05714 8.47971 4.99198 8.11556 5.00004 7.74933C5.01587 7.03047 5.31255 6.34639 5.82655 5.84358C6.34056 5.34077 7.03101 5.05922 7.75004 5.05922C8.46908 5.05922 9.15953 5.34077 9.67353 5.84358C10.1875 6.34639 10.4842 7.03047 10.5 7.74933V7.74933Z" fill="white"/>
</svg>
