<svg width="64" height="64" viewBox="0 0 64 64" fill="none" xmlns="http://www.w3.org/2000/svg">
<path fill-rule="evenodd" clip-rule="evenodd" d="M2.66666 7.568C2.66666 6.26808 3.18305 5.02141 4.10222 4.10223C5.0214 3.18305 6.26808 2.66666 7.56799 2.66666H56.4267C57.0709 2.66561 57.7089 2.79163 58.3044 3.03751C58.8998 3.28338 59.4409 3.64429 59.8967 4.09956C60.3524 4.55483 60.7139 5.09553 60.9604 5.69069C61.207 6.28585 61.3337 6.9238 61.3333 7.568V56.4267C61.334 57.071 61.2077 57.7091 60.9615 58.3046C60.7153 58.9 60.3542 59.4411 59.8987 59.8968C59.4432 60.3526 58.9023 60.714 58.307 60.9605C57.7117 61.207 57.0737 61.3337 56.4293 61.3333H7.56799C6.92411 61.3333 6.28655 61.2065 5.69172 60.96C5.09688 60.7135 4.55645 60.3522 4.10128 59.8968C3.64612 59.4414 3.28514 58.9008 3.03898 58.3058C2.79283 57.7108 2.66631 57.0732 2.66666 56.4293V7.568ZM25.888 25.0347H33.832V29.024C34.9787 26.7307 37.912 24.6667 42.32 24.6667C50.7707 24.6667 52.7733 29.2347 52.7733 37.616V53.1413H44.2213V39.5253C44.2213 34.752 43.0747 32.0587 40.1627 32.0587C36.1227 32.0587 34.4427 34.9627 34.4427 39.5253V53.1413H25.888V25.0347ZM11.2213 52.776H19.776V24.6667H11.2213V52.7733V52.776ZM21 15.4987C21.0161 16.2311 20.8858 16.9594 20.6166 17.6408C20.3475 18.3222 19.9449 18.943 19.4326 19.4667C18.9203 19.9905 18.3085 20.4066 17.6332 20.6907C16.9579 20.9748 16.2326 21.1211 15.5 21.1211C14.7674 21.1211 14.0421 20.9748 13.3668 20.6907C12.6915 20.4066 12.0797 19.9905 11.5674 19.4667C11.0551 18.943 10.6525 18.3222 10.3834 17.6408C10.1142 16.9594 9.98386 16.2311 9.99999 15.4987C10.0317 14.0609 10.625 12.6928 11.653 11.6872C12.681 10.6815 14.0619 10.1184 15.5 10.1184C16.9381 10.1184 18.319 10.6815 19.347 11.6872C20.375 12.6928 20.9683 14.0609 21 15.4987Z" fill="white"/>
</svg>
