<svg width="28" height="28" viewBox="0 0 28 28" fill="none" xmlns="http://www.w3.org/2000/svg">
<path fill-rule="evenodd" clip-rule="evenodd" d="M1.75 14C1.75 13.7679 1.84219 13.5454 2.00628 13.3813C2.17038 13.2172 2.39294 13.125 2.625 13.125H23.2628L17.7555 7.6195C17.5912 7.4552 17.4989 7.23236 17.4989 7C17.4989 6.76764 17.5912 6.5448 17.7555 6.3805C17.9198 6.2162 18.1426 6.12389 18.375 6.12389C18.6074 6.12389 18.8302 6.2162 18.9945 6.3805L25.9945 13.3805C26.076 13.4618 26.1406 13.5583 26.1847 13.6646C26.2289 13.7709 26.2516 13.8849 26.2516 14C26.2516 14.1151 26.2289 14.2291 26.1847 14.3354C26.1406 14.4417 26.076 14.5382 25.9945 14.6195L18.9945 21.6195C18.8302 21.7838 18.6074 21.8761 18.375 21.8761C18.1426 21.8761 17.9198 21.7838 17.7555 21.6195C17.5912 21.4552 17.4989 21.2324 17.4989 21C17.4989 20.7676 17.5912 20.5448 17.7555 20.3805L23.2628 14.875H2.625C2.39294 14.875 2.17038 14.7828 2.00628 14.6187C1.84219 14.4546 1.75 14.2321 1.75 14V14Z" fill="white"/>
</svg>
