<svg width="30" height="30" viewBox="0 0 30 30" fill="none" xmlns="http://www.w3.org/2000/svg">
<path d="M23.08 27.3576C22.8778 27.4627 22.6508 27.5109 22.4233 27.4968C22.1958 27.4827 21.9764 27.4069 21.7888 27.2776L5.53875 16.0276C5.3727 15.9125 5.23701 15.759 5.14329 15.58C5.04957 15.4011 5.00061 15.2021 5.00061 15.0001C5.00061 14.7981 5.04957 14.5991 5.14329 14.4201C5.23701 14.2412 5.3727 14.0876 5.53875 13.9726L21.7888 2.72257C21.9763 2.59281 22.1957 2.51682 22.4234 2.50284C22.651 2.48886 22.8781 2.53741 23.0801 2.64324C23.2821 2.74907 23.4513 2.90815 23.5694 3.10324C23.6875 3.29834 23.7499 3.52202 23.75 3.75007V26.2501C23.75 26.4782 23.6876 26.7021 23.5695 26.8973C23.4514 27.0925 23.2821 27.2517 23.08 27.3576Z" fill="#F2890D"/>
</svg>
