<svg width="30" height="30" viewBox="0 0 30 30" fill="none" xmlns="http://www.w3.org/2000/svg">
<path d="M6.92 27.3576C7.12221 27.4627 7.34924 27.5109 7.57673 27.4968C7.80422 27.4827 8.02357 27.4069 8.21125 27.2776L24.4613 16.0276C24.6273 15.9125 24.763 15.759 24.8567 15.58C24.9504 15.4011 24.9994 15.2021 24.9994 15.0001C24.9994 14.7981 24.9504 14.5991 24.8567 14.4201C24.763 14.2412 24.6273 14.0876 24.4613 13.9726L8.21125 2.72257C8.02372 2.59281 7.80426 2.51682 7.57664 2.50284C7.34902 2.48886 7.12192 2.53741 6.91991 2.64324C6.71791 2.74907 6.5487 2.90815 6.43062 3.10324C6.31254 3.29834 6.25008 3.52202 6.25 3.75007V26.2501C6.24996 26.4782 6.31238 26.7021 6.43048 26.8973C6.54859 27.0925 6.71788 27.2517 6.92 27.3576Z" fill="#F2890D"/>
</svg>
