<svg width="24" height="24" viewBox="0 0 24 24" fill="none" xmlns="http://www.w3.org/2000/svg">
<path d="M1.875 18.375H11.25V21.75H7.5V23.25H16.5V21.75H12.75V18.375H22.125C22.4233 18.3747 22.7092 18.256 22.9201 18.0451C23.131 17.8342 23.2497 17.5483 23.25 17.25V3.375C23.2497 3.07674 23.131 2.79079 22.9201 2.57989C22.7092 2.36899 22.4233 2.25035 22.125 2.25H1.875C1.57674 2.25035 1.29079 2.36899 1.07989 2.57989C0.868985 2.79079 0.750347 3.07674 0.75 3.375V17.25C0.750347 17.5483 0.868985 17.8342 1.07989 18.0451C1.29079 18.256 1.57674 18.3747 1.875 18.375ZM2.25 3.75H21.75V16.875H2.25V3.75Z" fill="white"/>
</svg>
