<svg width="25" height="24" viewBox="0 0 25 24" fill="none" xmlns="http://www.w3.org/2000/svg">
<path d="M12.5371 1.5C6.73867 1.5 2.03711 6.20156 2.03711 12C2.03711 17.7984 6.73867 22.5 12.5371 22.5C18.3355 22.5 23.0371 17.7984 23.0371 12C23.0371 6.20156 18.3355 1.5 12.5371 1.5ZM12.5371 18.0938C12.0191 18.0938 11.5996 17.6742 11.5996 17.1562C11.5996 16.6383 12.0191 16.2188 12.5371 16.2188C13.0551 16.2188 13.4746 16.6383 13.4746 17.1562C13.4746 17.6742 13.0551 18.0938 12.5371 18.0938ZM14.0113 12.9492C13.7991 13.0312 13.6164 13.1752 13.4873 13.3625C13.3581 13.5498 13.2883 13.7717 13.2871 13.9992V14.5312C13.2871 14.6344 13.2027 14.7188 13.0996 14.7188H11.9746C11.8715 14.7188 11.7871 14.6344 11.7871 14.5312V14.0273C11.7871 13.4859 11.9441 12.9516 12.2535 12.5062C12.5559 12.0703 12.9777 11.7375 13.4746 11.5477C14.2715 11.2406 14.7871 10.5727 14.7871 9.84375C14.7871 8.81016 13.777 7.96875 12.5371 7.96875C11.2973 7.96875 10.2871 8.81016 10.2871 9.84375V10.0219C10.2871 10.125 10.2027 10.2094 10.0996 10.2094H8.97461C8.87148 10.2094 8.78711 10.125 8.78711 10.0219V9.84375C8.78711 8.92266 9.19023 8.0625 9.92148 7.42266C10.6246 6.80625 11.5527 6.46875 12.5371 6.46875C13.5215 6.46875 14.4496 6.80859 15.1527 7.42266C15.884 8.0625 16.2871 8.92266 16.2871 9.84375C16.2871 11.1984 15.3941 12.4172 14.0113 12.9492Z" fill="#00BAE3"/>
</svg>
